<svg class="hero hero--clouds" width="100%" height="100%" viewBox="0 0 600 404" version="1.1" xmlns="http://www.w3.org/2000/svg" xmlns:xlink="http://www.w3.org/1999/xlink" xml:space="preserve" xmlns:serif="http://www.serif.com/" style="fill-rule:evenodd;clip-rule:evenodd;stroke-linecap:round;stroke-linejoin:round;stroke-miterlimit:1.5;">
    <g transform="matrix(1,0,0,1,1,2.16087)">
        <rect x="-0.829" y="-2.161" width="801.197" height="402.37" style="fill:rgb(18,2,45);"/>
        <g id="veticals" class="floor-shine">
            <g transform="matrix(0.999999,-0.000112464,-0.00011259,0.97537,6.20178,10.4171)">
                <path d="M393.82,194.416L393.843,399.466" style="fill:none;stroke:rgb(255,0,166);stroke-width:2.03px;"/>
            </g>
            <g transform="matrix(0.999999,-0.000112464,-0.00011259,0.97537,6.20178,10.4171)">
                <path d="M416.82,194.418C434.161,262.771 468.843,399.475 468.843,399.475" style="fill:none;stroke:rgb(255,0,166);stroke-width:2.03px;"/>
            </g>
            <g transform="matrix(0.999999,-0.000112464,-0.00011259,0.97537,6.20178,10.4171)">
                <path d="M439.82,194.421L546.843,399.484" style="fill:none;stroke:rgb(255,0,166);stroke-width:2.03px;"/>
            </g>
            <g transform="matrix(0.999999,-0.000112464,-0.00011259,0.97537,6.20178,10.4171)">
                <path d="M462.82,194.424L623.844,399.493" style="fill:none;stroke:rgb(255,0,166);stroke-width:2.03px;"/>
            </g>
            <g transform="matrix(0.999999,-0.000112464,-0.00011259,0.97537,6.20178,10.4171)">
                <path d="M485.82,194.426L699.727,400.248" style="fill:none;stroke:rgb(255,0,166);stroke-width:2.03px;"/>
            </g>
            <g transform="matrix(0.999999,-0.000112464,-0.00011259,0.97537,6.20178,10.4171)">
                <path d="M507.82,194.429L773.844,399.51" style="fill:none;stroke:rgb(255,0,166);stroke-width:2.03px;"/>
            </g>
            <g transform="matrix(0.999999,-0.000112464,-0.00011259,0.97537,6.20178,10.4171)">
                <path d="M532.82,194.432L793.839,362.588" style="fill:none;stroke:rgb(255,0,166);stroke-width:2.03px;"/>
            </g>
            <g transform="matrix(0.999999,-0.000112464,-0.00011259,0.97537,6.20178,10.4171)">
                <path d="M550.82,194.434L793.835,326.59" style="fill:none;stroke:rgb(255,0,166);stroke-width:2.03px;"/>
            </g>
            <g transform="matrix(0.999999,-0.000112464,-0.00011259,0.97537,6.20178,10.4171)">
                <path d="M573.82,194.436L793.832,300.223" style="fill:none;stroke:rgb(255,0,166);stroke-width:2.03px;"/>
            </g>
            <g transform="matrix(0.999999,-0.000112464,-0.00011259,0.97537,6.20178,10.4171)">
                <path d="M597.82,194.439L793.83,277.595" style="fill:none;stroke:rgb(255,0,166);stroke-width:2.03px;"/>
            </g>
            <g transform="matrix(0.999999,-0.000112464,-0.00011259,0.97537,6.20178,10.4171)">
                <path d="M618.82,194.442L793.828,260.348" style="fill:none;stroke:rgb(255,0,166);stroke-width:2.03px;"/>
            </g>
            <g transform="matrix(0.999999,-0.000112464,-0.00011259,0.97537,6.20178,10.4171)">
                <path d="M640.82,194.444L793.826,245.537" style="fill:none;stroke:rgb(255,0,166);stroke-width:2.03px;"/>
            </g>
            <g transform="matrix(0.999999,-0.000112464,-0.00011259,0.97537,6.20178,10.4171)">
                <path d="M661.82,194.447L793.825,233.855" style="fill:none;stroke:rgb(255,0,166);stroke-width:2.03px;"/>
            </g>
            <g transform="matrix(0.999999,-0.000112464,-0.00011259,0.97537,6.20178,10.4171)">
                <path d="M681.82,194.449L793.824,225.219" style="fill:none;stroke:rgb(255,0,166);stroke-width:2.03px;"/>
            </g>
            <g transform="matrix(0.999999,-0.000112464,-0.00011259,0.97537,6.20178,10.4171)">
                <path d="M703.82,194.451L793.823,217.017" style="fill:none;stroke:rgb(255,0,166);stroke-width:2.03px;"/>
            </g>
            <g transform="matrix(0.999999,-0.000112464,-0.00011259,0.97537,6.20178,10.4171)">
                <path d="M722.82,194.454L793.822,209.847" style="fill:none;stroke:rgb(255,0,166);stroke-width:2.03px;"/>
            </g>
            <g transform="matrix(0.999999,-0.000112464,-0.00011259,0.97537,6.20178,10.4171)">
                <path d="M740.821,194.456L793.821,202.96" style="fill:none;stroke:rgb(255,0,166);stroke-width:2.03px;"/>
            </g>
            <g transform="matrix(0.999999,-0.000112464,-0.00011259,0.97537,6.20178,10.4171)">
                <path d="M757.821,194.458L793.821,197.538" style="fill:none;stroke:rgb(255,0,166);stroke-width:2.03px;"/>
            </g>
            <g transform="matrix(0.999999,-0.000112464,-0.00011259,0.97537,6.20178,10.4171)">
                <path d="M773.821,194.46L793.821,194.462" style="fill:none;stroke:rgb(255,0,166);stroke-width:2.03px;"/>
            </g>
            <g transform="matrix(-0.999999,-0.000112464,0.00011259,0.97537,793.798,10.4171)">
                <path d="M416.82,194.418C434.161,262.771 468.843,399.475 468.843,399.475" style="fill:none;stroke:rgb(255,0,166);stroke-width:2.03px;"/>
            </g>
            <g transform="matrix(-0.999999,-0.000112464,0.00011259,0.97537,793.798,10.4171)">
                <path d="M439.82,194.421L546.843,399.484" style="fill:none;stroke:rgb(255,0,166);stroke-width:2.03px;"/>
            </g>
            <g transform="matrix(-0.999999,-0.000112464,0.00011259,0.97537,793.798,10.4171)">
                <path d="M462.82,194.424L623.844,399.493" style="fill:none;stroke:rgb(255,0,166);stroke-width:2.03px;"/>
            </g>
            <g transform="matrix(-0.999999,-0.000112464,0.00011259,0.97537,793.798,10.4171)">
                <path d="M485.82,194.426L699.727,400.248" style="fill:none;stroke:rgb(255,0,166);stroke-width:2.03px;"/>
            </g>
            <g transform="matrix(-0.999999,-0.000112464,0.00011259,0.97537,793.798,10.4171)">
                <path d="M507.82,194.429L773.844,399.51" style="fill:none;stroke:rgb(255,0,166);stroke-width:2.03px;"/>
            </g>
            <g transform="matrix(-0.999999,-0.000112464,0.00011259,0.97537,793.798,10.4171)">
                <path d="M532.82,194.432L793.839,362.588" style="fill:none;stroke:rgb(255,0,166);stroke-width:2.03px;"/>
            </g>
            <g transform="matrix(-0.999999,-0.000112464,0.00011259,0.97537,793.798,10.4171)">
                <path d="M550.82,194.434L793.835,326.59" style="fill:none;stroke:rgb(255,0,166);stroke-width:2.03px;"/>
            </g>
            <g transform="matrix(-0.999999,-0.000112464,0.00011259,0.97537,793.798,10.4171)">
                <path d="M573.82,194.436L793.832,300.223" style="fill:none;stroke:rgb(255,0,166);stroke-width:2.03px;"/>
            </g>
            <g transform="matrix(-0.999999,-0.000112464,0.00011259,0.97537,793.798,10.4171)">
                <path d="M597.82,194.439L793.83,277.595" style="fill:none;stroke:rgb(255,0,166);stroke-width:2.03px;"/>
            </g>
            <g transform="matrix(-0.999999,-0.000112464,0.00011259,0.97537,793.798,10.4171)">
                <path d="M618.82,194.442L793.828,260.348" style="fill:none;stroke:rgb(255,0,166);stroke-width:2.03px;"/>
            </g>
            <g transform="matrix(-0.999999,-0.000112464,0.00011259,0.97537,793.798,10.4171)">
                <path d="M640.82,194.444L793.826,245.537" style="fill:none;stroke:rgb(255,0,166);stroke-width:2.03px;"/>
            </g>
            <g transform="matrix(-0.999999,-0.000112464,0.00011259,0.97537,793.798,10.4171)">
                <path d="M661.82,194.447L793.825,233.855" style="fill:none;stroke:rgb(255,0,166);stroke-width:2.03px;"/>
            </g>
            <g transform="matrix(-0.999999,-0.000112464,0.00011259,0.97537,793.798,10.4171)">
                <path d="M681.82,194.449L793.824,225.219" style="fill:none;stroke:rgb(255,0,166);stroke-width:2.03px;"/>
            </g>
            <g transform="matrix(-0.999999,-0.000112464,0.00011259,0.97537,793.798,10.4171)">
                <path d="M703.82,194.451L793.823,217.017" style="fill:none;stroke:rgb(255,0,166);stroke-width:2.03px;"/>
            </g>
            <g transform="matrix(-0.999999,-0.000112464,0.00011259,0.97537,793.798,10.4171)">
                <path d="M722.82,194.454L793.822,209.847" style="fill:none;stroke:rgb(255,0,166);stroke-width:2.03px;"/>
            </g>
            <g transform="matrix(-0.999999,-0.000112464,0.00011259,0.97537,793.798,10.4171)">
                <path d="M740.821,194.456L793.821,202.96" style="fill:none;stroke:rgb(255,0,166);stroke-width:2.03px;"/>
            </g>
            <g transform="matrix(-0.999999,-0.000112464,0.00011259,0.97537,793.798,10.4171)">
                <path d="M757.821,194.458L793.821,197.538" style="fill:none;stroke:rgb(255,0,166);stroke-width:2.03px;"/>
            </g>
            <g transform="matrix(-0.999999,-0.000112464,0.00011259,0.97537,793.798,10.4171)">
                <path d="M773.821,194.46L793.821,194.462" style="fill:none;stroke:rgb(255,0,166);stroke-width:2.03px;"/>
            </g>
        </g>
        <g id="horizontals" class="floor-horizontal">
            <path d="M0,365L800,365.024"/>
            <path d="M0,328L800,328"/>
            <path d="M800,302L0,302"/>
            <path d="M0,280L800,280"/>
            <path d="M800,263.6L0,263.843"/>
            <path d="M0,249.563L800,249.576"/>
            <path d="M0,237.737L800,237.846"/>
            <path d="M0,230L800,230"/>
            <path d="M-0.092,222L800,222"/>
            <path d="M0,215L800,214.978"/>
            <path d="M0.149,209L800,209"/>
            <path d="M0,203L800,203"/>
            <path class="floor-horizon-line" d="M0,200L800,200L0,200Z"/>
        </g>
        <g id="orion" class="orion star">
            <path d="M103.085,34.28L116.067,71.02L123.852,59.925L116.143,25.424"/>
            <path d="M116.032,70.756L144.64,86.538L162.131,91.779L221.374,129.547L239.505,173.426L280.84,134.453L223.067,110.686L208.918,72.967L180.389,62.519L162.957,90.657"/>
            <path d="M208.987,72.816L247.441,26.696L229.407,17.758L214.206,21.679"/>
            <path d="M247.592,26.174L261.516,53.67L258.104,64.529"/>
            <g transform="matrix(0.204141,0,0,0.251119,147.512,5.36177)">
                <ellipse cx="400.489" cy="50.573" rx="12.246" ry="9.955"/>
            </g>
            <g transform="matrix(0.204141,0,0,0.251119,165.507,14.2322)">
                <ellipse cx="400.489" cy="50.573" rx="12.246" ry="9.955"/>
            </g>
            <g transform="matrix(0.204141,0,0,0.251119,179.738,41.6353)">
                <ellipse cx="400.489" cy="50.573" rx="12.246" ry="9.955"/>
            </g>
            <g transform="matrix(0.204141,0,0,0.251119,175.908,52.176)">
                <ellipse cx="400.489" cy="50.573" rx="12.246" ry="9.955"/>
            </g>
            <g transform="matrix(0.204141,0,0,0.251119,126.505,60.2825)">
                <ellipse cx="400.489" cy="50.573" rx="12.246" ry="9.955"/>
            </g>
            <g transform="matrix(0.204141,0,0,0.251119,98.6687,49.3785)">
                <ellipse cx="400.489" cy="50.573" rx="12.246" ry="9.955"/>
            </g>
            <g transform="matrix(0.204141,0,0,0.251119,80.4786,78.748)">
                <ellipse cx="400.489" cy="50.573" rx="12.246" ry="9.955"/>
            </g>
            <g transform="matrix(0.204141,0,0,0.251119,139.396,116.856)">
                <ellipse cx="400.489" cy="50.573" rx="12.246" ry="9.955"/>
            </g>
            <g transform="matrix(0.204141,0,0,0.251119,143.248,107.16)">
                <ellipse cx="400.489" cy="50.573" rx="12.246" ry="9.955"/>
            </g>
            <g transform="matrix(0.204141,0,0,0.251119,62.6625,74.0848)">
                <ellipse cx="400.489" cy="50.573" rx="12.246" ry="9.955"/>
            </g>
            <g transform="matrix(0.204141,0,0,0.251119,34.0186,58.6969)">
                <ellipse cx="400.489" cy="50.573" rx="12.246" ry="9.955"/>
            </g>
            <g transform="matrix(0.204141,0,0,0.251119,42.4852,47.1863)">
                <ellipse cx="400.489" cy="50.573" rx="12.246" ry="9.955"/>
            </g>
            <g transform="matrix(0.204141,0,0,0.251119,35.1656,12.7774)">
                <ellipse cx="400.489" cy="50.573" rx="12.246" ry="9.955"/>
            </g>
            <g transform="matrix(0.204141,0,0,0.251119,20.9108,22.2022)">
                <ellipse cx="400.489" cy="50.573" rx="12.246" ry="9.955"/>
            </g>
            <g transform="matrix(0.204141,0,0,0.251119,157.63,160.78)">
                <ellipse cx="400.489" cy="50.573" rx="12.246" ry="9.955"/>
            </g>
            <g transform="matrix(0.204141,0,0,0.251119,198.853,121.664)">
                <ellipse cx="400.489" cy="50.573" rx="12.246" ry="9.955"/>
            </g>
            <g transform="matrix(0.204141,0,0,0.251119,141.842,97.9688)">
                <ellipse cx="400.489" cy="50.573" rx="12.246" ry="9.955"/>
            </g>
            <g transform="matrix(0.204141,0,0,0.251119,132.76,9.04423)">
                <ellipse cx="400.489" cy="50.573" rx="12.246" ry="9.955"/>
            </g>
        </g>
        <g id="stars" class="star" transform="matrix(1,0,0,1,248.716,0.816641)">
            <g transform="matrix(0.204141,0,0,0.251119,355.336,10.0073)">
                <ellipse cx="400.489" cy="50.573" rx="12.246" ry="9.955"/>
            </g>
            <g transform="matrix(0.204141,0,0,0.251119,310.777,126.984)">
                <ellipse cx="400.489" cy="50.573" rx="12.246" ry="9.955"/>
            </g>
            <g transform="matrix(0.204141,0,0,0.251119,243.056,1.10892)">
                <ellipse cx="400.489" cy="50.573" rx="12.246" ry="9.955"/>
            </g>
            <g transform="matrix(0.204141,0,0,0.251119,164.802,9.12317)">
                <ellipse cx="400.489" cy="50.573" rx="12.246" ry="9.955"/>
            </g>
            <g transform="matrix(0.204141,0,0,0.251119,416.225,14.9989)">
                <ellipse cx="400.489" cy="50.573" rx="12.246" ry="9.955"/>
            </g>
            <g transform="matrix(0.204141,0,0,0.251119,430.859,82.2276)">
                <ellipse cx="400.489" cy="50.573" rx="12.246" ry="9.955"/>
            </g>
            <g transform="matrix(0.204141,0,0,0.251119,17.4959,138.849)">
                <ellipse cx="400.489" cy="50.573" rx="12.246" ry="9.955"/>
            </g>
            <g transform="matrix(0.204141,0,0,0.251119,123.7,111.465)">
                <ellipse cx="400.489" cy="50.573" rx="12.246" ry="9.955"/>
            </g>
            <g transform="matrix(0.204141,0,0,0.251119,398.863,147.512)">
                <ellipse cx="400.489" cy="50.573" rx="12.246" ry="9.955"/>
            </g>
            <g transform="matrix(0.204141,0,0,0.251119,62.6625,74.0848)">
                <ellipse cx="400.489" cy="50.573" rx="12.246" ry="9.955"/>
            </g>
            <g transform="matrix(0.204141,0,0,0.251119,-25.6232,73.5142)">
                <ellipse cx="400.489" cy="50.573" rx="12.246" ry="9.955"/>
            </g>
            <g transform="matrix(0.204141,0,0,0.251119,-233.733,116.464)">
                <ellipse cx="400.489" cy="50.573" rx="12.246" ry="9.955"/>
            </g>
            <g transform="matrix(0.204141,0,0,0.251119,35.1656,12.7774)">
                <ellipse cx="400.489" cy="50.573" rx="12.246" ry="9.955"/>
            </g>
            <g transform="matrix(0.204141,0,0,0.251119,-297.185,64.3583)">
                <ellipse cx="400.489" cy="50.573" rx="12.246" ry="9.955"/>
            </g>
            <g transform="matrix(0.204141,0,0,0.251119,-274.011,5.8848)">
                <ellipse cx="400.489" cy="50.573" rx="12.246" ry="9.955"/>
            </g>
            <g transform="matrix(0.204141,0,0,0.251119,198.853,121.664)">
                <ellipse cx="400.489" cy="50.573" rx="12.246" ry="9.955"/>
            </g>
            <g transform="matrix(0.204141,0,0,0.251119,141.842,97.9688)">
                <ellipse cx="400.489" cy="50.573" rx="12.246" ry="9.955"/>
            </g>
            <g transform="matrix(0.204141,0,0,0.251119,132.76,9.04423)">
                <ellipse cx="400.489" cy="50.573" rx="12.246" ry="9.955"/>
            </g>
        </g>
        <g id="moon">
            <g transform="matrix(1.05497,-0.215728,0.23065,1.12825,-69.4607,119.95)">
                <ellipse cx="627.524" cy="76.015" rx="23.21" ry="21.706" style="fill:rgb(18,2,45);"/>
            </g>
            <g transform="matrix(-1.62881,0.460257,-0.46917,-1.6608,1632.36,-88.7311)">
                <path class="moon-white moon-shine" d="M606.773,57.871C598.624,57.871 592.007,64.361 592.007,72.355C592.007,80.349 598.624,86.839 606.773,86.839C601.642,85.05 597.476,79.176 597.476,72.355C597.476,65.534 601.642,59.66 606.773,57.871Z"/>
            </g>
            <g transform="matrix(-1.62881,0.460257,-0.46917,-1.6608,1632.36,-88.7311)">
                <path class="moon-yellow" d="M606.773,57.871C601.592,59.63 597.386,65.514 597.386,72.355C597.386,79.195 601.592,85.08 606.773,86.839C603.222,84.115 600.338,78.563 600.338,72.355C600.338,66.147 603.222,60.595 606.773,57.871Z"/>
            </g>
        </g>
        <g id="clouds" transform="matrix(1,0,0,0.494749,0,-0.0917815)">
            <g id="large-pink-1" transform="matrix(1,0,0,2.02123,72.9474,15.4079)">
                <path class="cloud-scroll" d="M38.964,91.691C45.229,90.594 39.89,94.724 46.284,92.637C52.678,90.55 51.786,90.74 55.754,90.55C59.722,90.359 58.28,85.065 62.809,85.151C67.338,85.238 70.649,88.652 73.447,88.463C76.245,88.274 66.063,98.507 71.774,95.692C77.486,92.877 71.788,92.523 84.388,92.964C96.987,93.405 100.378,97.597 104.491,94.937C108.604,92.277 110.644,92.03 111.771,92.03C112.898,92.03 113.113,97.192 116.138,97.554C119.163,97.915 125.219,97.845 127.173,100.94C129.126,104.034 127.662,108.212 125.223,109.702C122.785,111.192 117.49,116.908 121.873,116.164C126.255,115.42 130.775,115.099 136.456,116.278C142.138,117.456 140.427,118.659 145.168,118.483C149.909,118.308 152.247,118.723 152.522,115.515C152.797,112.308 150.217,111.151 151.584,107.461C152.95,103.771 150.432,101.536 149.709,98.252C148.986,94.967 151.058,89.673 152.988,89.279C154.917,88.885 157.223,86.189 160.407,89.724C163.59,93.26 163.653,96.852 168.694,96.676C173.735,96.501 176.001,95.977 178.116,99.796C180.232,103.614 177.944,108.544 177.944,108.544C177.944,108.544 172.353,112.771 175.405,113.472C178.457,114.173 183.004,118.263 183.929,121.244C184.855,124.224 182.036,126.499 186.464,130.199C190.892,133.9 196.097,136.696 200.619,135.958C205.142,135.22 206.324,137.014 206.866,139.328C207.408,141.643 206.263,146.208 211.953,148.475C217.643,150.743 218.518,156.233 223.733,156.753C228.947,157.273 227.655,160.32 232.573,161.469C237.492,162.618 247.888,173.475 250.02,172.469C252.152,171.463 -72.914,172.469 -72.914,172.469C-72.914,172.469 -73.695,167.808 -67.724,165.519C-61.754,163.23 -60.157,165.086 -58.4,160.438C-56.643,155.79 -56.87,154.636 -51.983,151.528C-47.096,148.42 -42.238,147.537 -40.53,144.413C-38.822,141.29 -38.468,141.311 -31.463,141.818C-24.458,142.325 -24.217,142.929 -18.358,142.665C-12.499,142.402 -9.331,141.63 -8.102,139.105C-6.873,136.58 -3.743,128.081 0.252,127.503C4.247,126.925 9.368,125.709 9.368,121.845C9.368,117.982 10.841,112.434 10.841,112.434C10.841,112.434 11.438,110.826 13.115,111.173C14.792,111.52 18.952,111.52 18.952,111.52C18.952,111.52 22.34,109.23 22.089,106.455C21.837,103.68 22.909,100.548 22.909,100.548C22.909,100.548 25.398,97.62 23.805,94.858C22.212,92.097 22.855,92.097 28.541,92.097C34.227,92.097 32.698,92.788 38.964,91.691Z" style="fill:rgb(255,0,166);"/>
            </g>
            <g id="large-pink-2" transform="matrix(1,0,0,2.02123,-547.861,15.6416)">
                <path class="cloud-scroll" d="M38.964,91.691C45.229,90.594 39.89,94.724 46.284,92.637C52.678,90.55 51.786,90.74 55.754,90.55C59.722,90.359 58.28,85.065 62.809,85.151C67.338,85.238 70.649,88.652 73.447,88.463C76.245,88.274 66.063,98.507 71.774,95.692C77.486,92.877 71.788,92.523 84.388,92.964C96.987,93.405 100.378,97.597 104.491,94.937C108.604,92.277 110.644,92.03 111.771,92.03C112.898,92.03 113.113,97.192 116.138,97.554C119.163,97.915 125.219,97.845 127.173,100.94C129.126,104.034 127.662,108.212 125.223,109.702C122.785,111.192 117.49,116.908 121.873,116.164C126.255,115.42 130.775,115.099 136.456,116.278C142.138,117.456 140.427,118.659 145.168,118.483C149.909,118.308 152.247,118.723 152.522,115.515C152.797,112.308 150.217,111.151 151.584,107.461C152.95,103.771 150.432,101.536 149.709,98.252C148.986,94.967 151.058,89.673 152.988,89.279C154.917,88.885 157.223,86.189 160.407,89.724C163.59,93.26 163.653,96.852 168.694,96.676C173.735,96.501 176.001,95.977 178.116,99.796C180.232,103.614 177.944,108.544 177.944,108.544C177.944,108.544 172.353,112.771 175.405,113.472C178.457,114.173 183.004,118.263 183.929,121.244C184.855,124.224 182.036,126.499 186.464,130.199C190.892,133.9 196.097,136.696 200.619,135.958C205.142,135.22 206.324,137.014 206.866,139.328C207.408,141.643 206.263,146.208 211.953,148.475C217.643,150.743 218.518,156.233 223.733,156.753C228.947,157.273 227.655,160.32 232.573,161.469C237.492,162.618 247.888,173.475 250.02,172.469C252.152,171.463 -72.914,172.469 -72.914,172.469C-72.914,172.469 -73.695,167.808 -67.724,165.519C-61.754,163.23 -60.157,165.086 -58.4,160.438C-56.643,155.79 -56.87,154.636 -51.983,151.528C-47.096,148.42 -42.238,147.537 -40.53,144.413C-38.822,141.29 -38.468,141.311 -31.463,141.818C-24.458,142.325 -24.217,142.929 -18.358,142.665C-12.499,142.402 -9.331,141.63 -8.102,139.105C-6.873,136.58 -3.743,128.081 0.252,127.503C4.247,126.925 9.368,125.709 9.368,121.845C9.368,117.982 10.841,112.434 10.841,112.434C10.841,112.434 11.438,110.826 13.115,111.173C14.792,111.52 18.952,111.52 18.952,111.52C18.952,111.52 22.34,109.23 22.089,106.455C21.837,103.68 22.909,100.548 22.909,100.548C22.909,100.548 25.398,97.62 23.805,94.858C22.212,92.097 22.855,92.097 28.541,92.097C34.227,92.097 32.698,92.788 38.964,91.691Z" style="fill:rgb(255,0,166);"/>
            </g>
            <g id="large-purple-1" transform="matrix(-1.7154,0,0,4.48956,1200.153,-398.852)">
                <path class="cloud-scroll-rev" d="M395.929,170C399.439,170 389.427,162.043 389.979,161.037C390.531,160.031 392.124,157.399 390.875,156.019C389.626,154.64 385.368,153.399 381.798,154.002C378.228,154.606 374.832,156.601 373.77,155.859C372.708,155.117 366.721,148.772 365.076,148.772C363.43,148.772 359.55,144.832 359.498,143.558C359.446,142.283 352.286,142.924 352.286,142.924C352.286,142.924 348.184,146.263 346.157,145.296C344.129,144.329 338.951,144.274 337.241,142.052C335.531,139.831 334.61,138.427 331.498,139.014C328.386,139.601 325.138,139.754 324.23,138.777C323.322,137.801 321.748,137.703 321.154,139.354C320.56,141.006 323.89,145.835 319.092,146.829C314.295,147.823 311.618,151.179 311.618,151.179C311.618,151.179 309.073,157.271 307.347,155.625C305.622,153.978 301.243,149.912 299.5,149.838C297.758,149.764 293.043,150.945 291.844,148.735C290.645,146.525 287.565,144.158 284.977,143.459C282.39,142.76 281.234,137.403 277.171,135.755C273.108,134.107 265.951,133.309 265.951,130.844C265.951,128.378 259.483,125.163 256.907,125.163C254.331,125.163 255.586,128.712 253.479,128.248C251.371,127.784 250.957,125.171 248.539,125.171C246.121,125.171 242.642,129.958 238.511,129.872C234.38,129.785 233.242,129.868 231.426,131.201C229.61,132.533 221.559,137.076 219.389,136.842C217.219,136.608 217.373,140.097 215.729,140.764C214.084,141.43 213.678,144.344 211.427,145.885C209.177,147.426 204.466,148.212 205.318,152.198C206.171,156.183 210.988,159.83 209.703,159.894C208.418,159.959 207.882,163.742 205.558,164.109C203.234,164.475 201.669,165.896 199.962,168.182C198.254,170.468 199.228,169.051 195.454,169.051C191.68,169.051 186.617,170 189.479,170L395.929,170Z" style="fill:rgb(138,138,201);"/>
            </g>
            <g id="medium-purple-1" transform="matrix(1,0,0,2.02123,79.9474,18.7432)">
                <path class="cloud-scroll" d="M92.427,170.668C102.971,170.668 109.202,170.187 107.613,166.715C106.024,163.243 108.402,163.111 101.622,159.574C94.843,156.037 92.675,160.672 89.953,156.214C87.231,151.756 92.672,153.342 82.55,148.936C72.428,144.53 64.926,147.185 64.425,143.303C63.924,139.422 57.673,130.74 57.673,130.74C57.673,130.74 53.856,118.83 47.292,118.588C40.728,118.347 37.16,113.493 31.059,116.047C24.958,118.601 25.924,122.533 20.651,122.652C15.377,122.772 13.972,122.855 7.96,127.386C1.948,131.917 0.353,132.397 -3.714,132.276C-7.781,132.155 -3.314,129.062 -10.43,136.329C-17.545,143.595 -17.982,152.246 -22.215,152.246C-26.449,152.246 -28.022,154.816 -26.83,158.692C-25.637,162.568 -23.227,162.737 -29.306,163.93C-35.386,165.122 -42.565,168.334 -42.565,168.334L-38.348,171C-38.348,171 81.882,170.668 92.427,170.668Z" style="fill:rgb(138,138,201);stroke:rgb(138,138,201);stroke-width:1px;"/>
            </g>
            <g id="medium-grey-1" transform="matrix(1,0,0,2.02123,206.823,20.7644)">
                <path class="cloud-scroll" d="M395.929,170C399.439,170 389.427,162.043 389.979,161.037C390.531,160.031 392.124,157.399 390.875,156.019C389.626,154.64 385.368,153.399 381.798,154.002C378.228,154.606 374.832,156.601 373.77,155.859C372.708,155.117 366.721,148.772 365.076,148.772C363.43,148.772 359.55,144.832 359.498,143.558C359.446,142.283 352.286,142.924 352.286,142.924C352.286,142.924 348.184,146.263 346.157,145.296C344.129,144.329 338.951,144.274 337.241,142.052C335.531,139.831 334.61,138.427 331.498,139.014C328.386,139.601 325.138,139.754 324.23,138.777C323.322,137.801 321.748,137.703 321.154,139.354C320.56,141.006 323.89,145.835 319.092,146.829C314.295,147.823 311.618,151.179 311.618,151.179C311.618,151.179 309.073,157.271 307.347,155.625C305.622,153.978 301.243,149.912 299.5,149.838C297.758,149.764 293.043,150.945 291.844,148.735C290.645,146.525 287.565,144.158 284.977,143.459C282.39,142.76 281.234,137.403 277.171,135.755C273.108,134.107 265.951,133.309 265.951,130.844C265.951,128.378 259.483,125.163 256.907,125.163C254.331,125.163 255.586,128.712 253.479,128.248C251.371,127.784 250.957,125.171 248.539,125.171C246.121,125.171 242.642,129.958 238.511,129.872C234.38,129.785 233.242,129.868 231.426,131.201C229.61,132.533 221.559,137.076 219.389,136.842C217.219,136.608 217.373,140.097 215.729,140.764C214.084,141.43 213.678,144.344 211.427,145.885C209.177,147.426 204.466,148.212 205.318,152.198C206.171,156.183 210.988,159.83 209.703,159.894C208.418,159.959 207.882,163.742 205.558,164.109C203.234,164.475 201.669,165.896 199.962,168.182C198.254,170.468 199.377,168.272 195.603,168.272C191.829,168.272 186.617,170 189.479,170L395.929,170Z" style="fill:rgb(173,173,173);"/>
            </g>
            <g id="small-grey-1" transform="matrix(1,0,0,2.02123,200.623,30.8705)">
                <path class="cloud-scroll" d="M482.824,165C486.945,165 478.121,160.349 478.121,160.349C478.121,160.349 477.853,159.126 475.669,158.676C473.485,158.227 472.444,154.349 469.784,154.349C467.124,154.349 465.908,155.495 464.767,154.349C463.625,153.204 461.182,152.266 461.182,152.266C461.182,152.266 459.542,147.028 457.959,146.455C456.376,145.882 455.255,141.84 453.584,142.88C451.912,143.921 453.821,145.416 451.912,145.47C450.004,145.523 443.993,144.376 441.61,145.935C439.228,147.494 437.476,144.639 436.458,144.227C435.439,143.816 431.558,143.205 429.166,144.488C426.773,145.772 426.503,149.125 425.046,150.222C423.59,151.319 424.366,155.87 422.633,156.491C420.899,157.112 416.091,157.659 415.692,159.543C415.292,161.427 410.407,165.011 411.836,165C412.988,164.991 479.867,165 482.824,165Z" style="fill:rgb(173,173,173);"/>
            </g>
            <g id="small-grey-2" transform="matrix(2.02653,0,0,4.09608,-1000.003,-311.48)">
                <path class="cloud-scroll" d="M482.824,165C486.945,165 478.121,160.349 478.121,160.349C478.121,160.349 477.853,159.126 475.669,158.676C473.485,158.227 472.444,154.349 469.784,154.349C467.124,154.349 465.908,155.495 464.767,154.349C463.625,153.204 461.182,152.266 461.182,152.266C461.182,152.266 459.542,147.028 457.959,146.455C456.376,145.882 455.255,141.84 453.584,142.88C451.912,143.921 453.821,145.416 451.912,145.47C450.004,145.523 443.993,144.376 441.61,145.935C439.228,147.494 437.476,144.639 436.458,144.227C435.439,143.816 431.558,143.205 429.166,144.488C426.773,145.772 426.503,149.125 425.046,150.222C423.59,151.319 424.366,155.87 422.633,156.491C420.899,157.112 416.091,157.659 415.692,159.543C415.292,161.427 410.407,165.011 411.836,165C412.988,164.991 479.867,165 482.824,165Z" style="fill:rgb(173,173,173);"/>
            </g>
        </g>
    </g>
</svg>
