<svg class="hero hero--pink-lines" width="100%" height="100%" viewBox="0 0 800 100" version="1.1" xmlns="http://www.w3.org/2000/svg" xmlns:xlink="http://www.w3.org/1999/xlink" xml:space="preserve" xmlns:serif="http://www.serif.com/" style="fill-rule:evenodd;clip-rule:evenodd;stroke-linecap:round;stroke-linejoin:round;stroke-miterlimit:1.5;">
    <g transform="matrix(1,0,0,1,1,-196.312)">
        <g transform="matrix(1,0,0,0.506741,0,197.407)">
            <rect x="-0.829" y="-2.161" width="801.197" height="402.37" style="fill:rgb(18,2,45);"/>
        </g>
        <g id="veticals">
            <g transform="matrix(0.999999,-0.000112464,-0.00011259,0.97537,6.20178,10.4171)">
                <path d="M393.82,194.416L393.843,399.466" style="fill:none;stroke:rgb(255,0,166);stroke-width:2.03px;"/>
            </g>
            <g transform="matrix(0.999999,-0.000112464,-0.00011259,0.97537,6.20178,10.4171)">
                <path d="M416.82,194.418C434.161,262.771 468.843,399.475 468.843,399.475" style="fill:none;stroke:rgb(255,0,166);stroke-width:2.03px;"/>
            </g>
            <g transform="matrix(0.999999,-0.000112464,-0.00011259,0.97537,6.20178,10.4171)">
                <path d="M439.82,194.421L546.843,399.484" style="fill:none;stroke:rgb(255,0,166);stroke-width:2.03px;"/>
            </g>
            <g transform="matrix(0.999999,-0.000112464,-0.00011259,0.97537,6.20178,10.4171)">
                <path d="M462.82,194.424L623.844,399.493" style="fill:none;stroke:rgb(255,0,166);stroke-width:2.03px;"/>
            </g>
            <g transform="matrix(0.999999,-0.000112464,-0.00011259,0.97537,6.20178,10.4171)">
                <path d="M485.82,194.426L699.727,400.248" style="fill:none;stroke:rgb(255,0,166);stroke-width:2.03px;"/>
            </g>
            <g transform="matrix(0.999999,-0.000112464,-0.00011259,0.97537,6.20178,10.4171)">
                <path d="M507.82,194.429L773.844,399.51" style="fill:none;stroke:rgb(255,0,166);stroke-width:2.03px;"/>
            </g>
            <g transform="matrix(0.999999,-0.000112464,-0.00011259,0.97537,6.20178,10.4171)">
                <path d="M532.82,194.432L793.839,362.588" style="fill:none;stroke:rgb(255,0,166);stroke-width:2.03px;"/>
            </g>
            <g transform="matrix(0.999999,-0.000112464,-0.00011259,0.97537,6.20178,10.4171)">
                <path d="M550.82,194.434L793.835,326.59" style="fill:none;stroke:rgb(255,0,166);stroke-width:2.03px;"/>
            </g>
            <g transform="matrix(0.999999,-0.000112464,-0.00011259,0.97537,6.20178,10.4171)">
                <path d="M573.82,194.436L793.832,300.223" style="fill:none;stroke:rgb(255,0,166);stroke-width:2.03px;"/>
            </g>
            <g transform="matrix(0.999999,-0.000112464,-0.00011259,0.97537,6.20178,10.4171)">
                <path d="M597.82,194.439L793.83,277.595" style="fill:none;stroke:rgb(255,0,166);stroke-width:2.03px;"/>
            </g>
            <g transform="matrix(0.999999,-0.000112464,-0.00011259,0.97537,6.20178,10.4171)">
                <path d="M618.82,194.442L793.828,260.348" style="fill:none;stroke:rgb(255,0,166);stroke-width:2.03px;"/>
            </g>
            <g transform="matrix(0.999999,-0.000112464,-0.00011259,0.97537,6.20178,10.4171)">
                <path d="M640.82,194.444L793.826,245.537" style="fill:none;stroke:rgb(255,0,166);stroke-width:2.03px;"/>
            </g>
            <g transform="matrix(0.999999,-0.000112464,-0.00011259,0.97537,6.20178,10.4171)">
                <path d="M661.82,194.447L793.825,233.855" style="fill:none;stroke:rgb(255,0,166);stroke-width:2.03px;"/>
            </g>
            <g transform="matrix(0.999999,-0.000112464,-0.00011259,0.97537,6.20178,10.4171)">
                <path d="M681.82,194.449L793.824,225.219" style="fill:none;stroke:rgb(255,0,166);stroke-width:2.03px;"/>
            </g>
            <g transform="matrix(0.999999,-0.000112464,-0.00011259,0.97537,6.20178,10.4171)">
                <path d="M703.82,194.451L793.823,217.017" style="fill:none;stroke:rgb(255,0,166);stroke-width:2.03px;"/>
            </g>
            <g transform="matrix(0.999999,-0.000112464,-0.00011259,0.97537,6.20178,10.4171)">
                <path d="M722.82,194.454L793.822,209.847" style="fill:none;stroke:rgb(255,0,166);stroke-width:2.03px;"/>
            </g>
            <g transform="matrix(0.999999,-0.000112464,-0.00011259,0.97537,6.20178,10.4171)">
                <path d="M740.821,194.456L793.821,202.96" style="fill:none;stroke:rgb(255,0,166);stroke-width:2.03px;"/>
            </g>
            <g transform="matrix(0.999999,-0.000112464,-0.00011259,0.97537,6.20178,10.4171)">
                <path d="M757.821,194.458L793.821,197.538" style="fill:none;stroke:rgb(255,0,166);stroke-width:2.03px;"/>
            </g>
            <g transform="matrix(0.999999,-0.000112464,-0.00011259,0.97537,6.20178,10.4171)">
                <path d="M773.821,194.46L793.821,194.462" style="fill:none;stroke:rgb(255,0,166);stroke-width:2.03px;"/>
            </g>
            <g transform="matrix(-0.999999,-0.000112464,0.00011259,0.97537,793.798,10.4171)">
                <path d="M416.82,194.418C434.161,262.771 468.843,399.475 468.843,399.475" style="fill:none;stroke:rgb(255,0,166);stroke-width:2.03px;"/>
            </g>
            <g transform="matrix(-0.999999,-0.000112464,0.00011259,0.97537,793.798,10.4171)">
                <path d="M439.82,194.421L546.843,399.484" style="fill:none;stroke:rgb(255,0,166);stroke-width:2.03px;"/>
            </g>
            <g transform="matrix(-0.999999,-0.000112464,0.00011259,0.97537,793.798,10.4171)">
                <path d="M462.82,194.424L623.844,399.493" style="fill:none;stroke:rgb(255,0,166);stroke-width:2.03px;"/>
            </g>
            <g transform="matrix(-0.999999,-0.000112464,0.00011259,0.97537,793.798,10.4171)">
                <path d="M485.82,194.426L699.727,400.248" style="fill:none;stroke:rgb(255,0,166);stroke-width:2.03px;"/>
            </g>
            <g transform="matrix(-0.999999,-0.000112464,0.00011259,0.97537,793.798,10.4171)">
                <path d="M507.82,194.429L773.844,399.51" style="fill:none;stroke:rgb(255,0,166);stroke-width:2.03px;"/>
            </g>
            <g transform="matrix(-0.999999,-0.000112464,0.00011259,0.97537,793.798,10.4171)">
                <path d="M532.82,194.432L793.839,362.588" style="fill:none;stroke:rgb(255,0,166);stroke-width:2.03px;"/>
            </g>
            <g transform="matrix(-0.999999,-0.000112464,0.00011259,0.97537,793.798,10.4171)">
                <path d="M550.82,194.434L793.835,326.59" style="fill:none;stroke:rgb(255,0,166);stroke-width:2.03px;"/>
            </g>
            <g transform="matrix(-0.999999,-0.000112464,0.00011259,0.97537,793.798,10.4171)">
                <path d="M573.82,194.436L793.832,300.223" style="fill:none;stroke:rgb(255,0,166);stroke-width:2.03px;"/>
            </g>
            <g transform="matrix(-0.999999,-0.000112464,0.00011259,0.97537,793.798,10.4171)">
                <path d="M597.82,194.439L793.83,277.595" style="fill:none;stroke:rgb(255,0,166);stroke-width:2.03px;"/>
            </g>
            <g transform="matrix(-0.999999,-0.000112464,0.00011259,0.97537,793.798,10.4171)">
                <path d="M618.82,194.442L793.828,260.348" style="fill:none;stroke:rgb(255,0,166);stroke-width:2.03px;"/>
            </g>
            <g transform="matrix(-0.999999,-0.000112464,0.00011259,0.97537,793.798,10.4171)">
                <path d="M640.82,194.444L793.826,245.537" style="fill:none;stroke:rgb(255,0,166);stroke-width:2.03px;"/>
            </g>
            <g transform="matrix(-0.999999,-0.000112464,0.00011259,0.97537,793.798,10.4171)">
                <path d="M661.82,194.447L793.825,233.855" style="fill:none;stroke:rgb(255,0,166);stroke-width:2.03px;"/>
            </g>
            <g transform="matrix(-0.999999,-0.000112464,0.00011259,0.97537,793.798,10.4171)">
                <path d="M681.82,194.449L793.824,225.219" style="fill:none;stroke:rgb(255,0,166);stroke-width:2.03px;"/>
            </g>
            <g transform="matrix(-0.999999,-0.000112464,0.00011259,0.97537,793.798,10.4171)">
                <path d="M703.82,194.451L793.823,217.017" style="fill:none;stroke:rgb(255,0,166);stroke-width:2.03px;"/>
            </g>
            <g transform="matrix(-0.999999,-0.000112464,0.00011259,0.97537,793.798,10.4171)">
                <path d="M722.82,194.454L793.822,209.847" style="fill:none;stroke:rgb(255,0,166);stroke-width:2.03px;"/>
            </g>
            <g transform="matrix(-0.999999,-0.000112464,0.00011259,0.97537,793.798,10.4171)">
                <path d="M740.821,194.456L793.821,202.96" style="fill:none;stroke:rgb(255,0,166);stroke-width:2.03px;"/>
            </g>
            <g transform="matrix(-0.999999,-0.000112464,0.00011259,0.97537,793.798,10.4171)">
                <path d="M757.821,194.458L793.821,197.538" style="fill:none;stroke:rgb(255,0,166);stroke-width:2.03px;"/>
            </g>
            <g transform="matrix(-0.999999,-0.000112464,0.00011259,0.97537,793.798,10.4171)">
                <path d="M773.821,194.46L793.821,194.462" style="fill:none;stroke:rgb(255,0,166);stroke-width:2.03px;"/>
            </g>
        </g>
        <g id="horizontals">
            <path d="M0,365L800,365.024" style="fill:none;stroke:rgb(138,138,201);stroke-width:1px;"/>
            <path d="M0,328L800,328" style="fill:none;stroke:rgb(138,138,201);stroke-width:1px;"/>
            <path d="M800,302L0,302" style="fill:none;stroke:rgb(138,138,201);stroke-width:1px;"/>
            <path d="M0,280L800,280" style="fill:none;stroke:rgb(138,138,201);stroke-width:1px;"/>
            <path d="M800,263.6L0,263.843" style="fill:none;stroke:rgb(138,138,201);stroke-width:1px;"/>
            <path d="M0,249.563L800,249.576" style="fill:none;stroke:rgb(138,138,201);stroke-width:1px;"/>
            <path d="M0,237.737L800,237.846" style="fill:none;stroke:rgb(138,138,201);stroke-width:1px;"/>
            <path d="M0,230L800,230" style="fill:none;stroke:rgb(138,138,201);stroke-width:1px;"/>
            <path d="M-0.092,222L800,222" style="fill:none;stroke:rgb(138,138,201);stroke-width:1px;"/>
            <path d="M0,215L800,214.978" style="fill:none;stroke:rgb(138,138,201);stroke-width:1px;"/>
            <path d="M0.149,209L800,209" style="fill:none;stroke:rgb(138,138,201);stroke-width:1px;"/>
            <path d="M0,203L800,203" style="fill:none;stroke:rgb(138,138,201);stroke-width:1px;"/>
            <g transform="matrix(1,0,0,1,0,-1)">
                <path d="M0,200L800,200L0,200Z" style="fill:none;stroke:rgb(138,138,201);stroke-width:1px;"/>
            </g>
        </g>
    </g>
</svg>
