
<svg width="210mm" height="297mm" version="1.1" viewBox="0 0 210 297" xmlns="http://www.w3.org/2000/svg">
<g>
<rect x=".1651" y="11.747" width="529.83" height="4.9531" fill="#3e606d" stroke-width="2.2352"/>
</g>
<g>
<path d="m1.7227 11.747c0.57796 4.9924 5.752-1.7941 7.9197 0.35394 1.5898 1.5753-1.8866-1.4222 0.4513 0.8944 1.3853 1.3727 3.0764 2.8027 3.6104 4.9192 0.31696 1.2563-0.4501 6.7092 0 7.1552 0.55615 0.5511 3.291-0.25457 4.0617 0 1.158 0.38251 3.7119 2.3366 4.513 3.1304 0.65039 0.64448 0.43126 1.7789 1.3539 2.236 0.49727 0.24638 8.9587-1.3416 10.38-1.3416 0.60173 0 1.2343-0.18855 1.8052 0 0.14271 0.04714-0.10638 0.3418 0 0.4472 0.26457 0.26217 1.8026 0.44975 1.8052 0.4472 0.56975-0.56458 0.03965-3.6562 0.4513-4.472 0.55968-1.1092 1.194-2.8276 2.7078-3.5776 0.53771-0.26642 1.8489-0.49056 2.2565-0.8944 0.21275-0.21081-0.21274-0.68359 0-0.8944 0.10637-0.10541 0.34493 0.10541 0.4513 0 1.1211-1.1109-0.06305-6.6768 3.6104-8.4968 0.64406-0.3191 0.54692-0.8944 1.3539-0.8944 0.72627 0 0.23921-0.77588 0.9026-0.4472 0.83523 0.41382 1.3818 2.4734 2.7078 3.1304 0.6196 0.30699 1.1496 1.0168 1.8052 1.3416 0.53772 0.26642 1.8489 0.49055 2.2565 0.8944 0.60173 0.59627-0.60173 2.9813 0 3.5776 0.10637 0.1054 0.34493-0.10541 0.4513 0 0.0984 0.09751 0.60147 2.3848 0.9026 2.6832 0.39392 0.39034 1.7432 1.2801 2.2565 1.7888 0.80828 0.80094 1.5438 2.3614 2.7078 3.1304 1.4955 0.98793 6.0628 2.4891 7.6721 0.8944 0.10637-0.10541-0.10638-0.3418 0-0.4472 0.08405-0.0833 4.1568 1.5181 5.4156 0.8944 2.814-1.3942 5.4051-3.3369 6.4719-4.394 0.52492-0.52015 2.4755-0.0391 3.4567-0.52524 0.38953-0.193 2.919-2.4453 3.1591-2.6832 0.21274-0.21081 0.97986-0.8149 1.1926-1.0257 0.22565-0.2236-0.51566-0.0923-0.29001-0.31589 0.10637-0.10541-0.10637-0.3418 0-0.4472 0.37515-0.37174 2.5819-0.16123 3.1591-0.4472 0.90942-0.45058 2.7235-1.5364 3.0766-2.236 0.27078-0.53664 0.33336-0.80496 0.60414-1.3416 0.13676-0.27103 0.0135-0.95598 0.0135-0.95598-0.09197-2.0217 0.18944-1.8912 0.25672-2.0246 0.19224-0.38098-0.23565 0.19341 0.11078-0.14988 0.10637-0.10541 0.34493 0.10541 0.4513 0 0.18911-0.1874-1.0475 0.42374-0.91077 0.15271 0.9391-1.8611 2.3418 0.51169 3.3349-0.3508 0.7874-0.68385 0 0 0.82696-2.2307 1.748-2.3588 2.6216-2.6008 4.8723-2.0432 2.7513 0.68159 1.6776 3.5192 2.2565 5.8136 0.86955 3.4466 2.9532 2.032 4.513 3.5776 0.72348 0.7169-0.35471 3.4175 0 4.472 0.34018 1.0112 0.58151 2.1759 0.9026 3.1304 0.279 0.8294 1.1305 1.3431 1.8052 1.7888 0.89405-0.04464 0.21344 0.65871 0.45129 0.8944 1.3721 1.3596 5.1792 1.6306 7.2208 1.3416 2.4668-0.3492 5.0928-2.6181 5.8669-4.9192 0.0952-0.28284-0.21275-0.68359 0-0.8944 0.48749-0.48307 1.3284 0.86914 1.3539 0.8944 0.0145 0.01439 2.3933 0.40268 2.7078 0.4472 0.7011 0.09925 3.276 0.19465 4.0617 0 0.17649-0.04373 6.9266-4.0348 7.2208-4.472 1.0135-1.5064 1.8974-2.6927 2.2565-4.472 0.0527-0.26118 0.19317-2.3004 0-2.6832-0.0588-0.11643-0.8041-0.54481-0.4513-0.8944 0.21274-0.21081 0.63349 0.13333 0.90259 0 1.3262-0.65706 2.6502-1.7317 3.6104-2.6832 0.71245-0.70599 0.79161-2.5146 2.2565-1.7888 2.4891 1.2333 2.2057 2.9795 3.1591 5.8136 0.0837 0.24865-0.16729 0.84431 0 1.3416 0.23863 0.70939 1.3813 0.92156 1.8052 1.3416 0.27498 0.27249 0.782 1.8775 0.90259 2.236 0.27622 0.82112-0.0866 5.0909-0.45129 5.8136-0.0148 0.02927-0.9026 0.48309-0.9026 0.8944 0 0.06169 1.5977-0.1028 1.8052 0 1.2107 0.59985 2.7036 0.893 4.0617 1.3416 1.1004 0.36346 1.4301 2.236 2.2565 2.236 1.0884 0 3.0643-3.5463 4.513-4.0248 0.57783-0.19087 6.6026 0.72902 6.7695 0.8944 0.10637 0.10541-0.15043 0.4472 0 0.4472 0.43356 0 0.82548-6.3698 1.3539-7.1552 0.86176-1.2809 4.5428-2.2656 5.4156-3.1304 1.0355-1.0261 3.9023-5.2151 6.3182-5.8136 0.36161-0.089581 8.3214-0.34912 9.026 0 1.4032 0.69526 1.8634 2.8562 2.2565 4.0248 0.18525 0.55072 0.1669 2.6342 0 3.1304-0.13456 0.39999-0.9026 0.47278-0.9026 0.8944 0 0.08479 1.6255 0.26915 2.2565 0.8944 1.0927 1.0828 1.8052 3.4857 1.8052 4.9192v3.1304c0 0.14907-0.15044 0.4472 0 0.4472 0.21274 0 0.26101-0.35292 0.4513-0.4472 3.0416-1.507 4.0456-2.9866 7.6721-1.7888 0.28543 0.09428 0.63349-0.13333 0.90259 0 0.56676 0.2808 4.1161 3.0765 4.513 2.6832 0.18196-0.1803 0.29529-1.1097 0.4513-1.3416 0.84797-1.2604 2.7921-2.8228 4.0617-3.5776 0.36296-0.2158 4.423-2.0577 4.513-2.236 0.13456-0.26666-0.13455-0.62774 0-0.8944 0.67981-1.3473 0.91826-3.0072 1.8052-4.472 0.36727-0.60657 1.9316-1.2823 3.433-2.1862 2.7059-2.0441 4.7791-1.2423 6.9469 0.9057 1.5898 1.5753-1.8866-1.4223 0.4513 0.8944 1.3853 1.3727 3.0764 2.8027 3.6104 4.9192 0.31696 1.2563-0.45009 6.7092 0 7.1552 0.55615 0.5511 3.291-0.25457 4.0617 0 1.158 0.38251 3.7119 2.3366 4.513 3.1304 0.65038 0.64448 0.43125 1.7789 1.3539 2.236 0.49727 0.24638 8.9587-1.3416 10.38-1.3416 0.60173 0 1.2343-0.18855 1.8052 0 0.14272 0.04714-0.10636 0.34179 0 0.4472 0.26457 0.26216 1.8026 0.44974 1.8052 0.4472 0.56975-0.56458 0.0397-3.6562 0.4513-4.472 0.55968-1.1092 1.194-2.8276 2.7078-3.5776 0.53771-0.26642 1.849-0.49056 2.2565-0.8944 0.21275-0.21081-0.21274-0.68359 0-0.8944 0.10637-0.10541 0.34493 0.10541 0.4513 0 1.1211-1.1109-0.0631-6.6768 3.6104-8.4968 0.64405-0.3191 0.54692-0.8944 1.3539-0.8944 0.72627 0 0.2392-0.77588 0.9026-0.4472 0.83524 0.41382 1.3818 2.4734 2.7078 3.1304 0.6196 0.30699 1.1496 1.0168 1.8052 1.3416 0.53772 0.26642 1.849 0.49056 2.2565 0.8944 0.60173 0.59627-0.60173 2.9813 0 3.5776 0.10638 0.1054 0.34493-0.10541 0.4513 0 0.0984 0.09751 0.60147 2.3848 0.9026 2.6832 0.39392 0.39034 1.7432 1.2801 2.2565 1.7888 0.80828 0.80094 1.5438 2.3614 2.7078 3.1304 1.4955 0.98793 6.0628 2.4891 7.6721 0.8944 0.10637-0.1054-0.10637-0.3418 0-0.4472 0.0841-0.0833 4.1568 1.5181 5.4156 0.8944 2.814-1.3942 5.4051-3.3369 6.4719-4.394 0.52491-0.52015 2.4755-0.0391 3.4567-0.52524 0.38952-0.19299 2.919-2.4453 3.1591-2.6832 0.21274-0.21081 0.97986-0.8149 1.1926-1.0257 0.22565-0.2236-0.51566-0.0923-0.29001-0.31589 0.10637-0.10541-0.10637-0.3418 0-0.4472 0.37515-0.37174 2.5819-0.16123 3.1591-0.4472 0.90942-0.45058 2.7235-1.5364 3.0766-2.236 0.27078-0.53664 0.33337-0.80496 0.60414-1.3416 0.13676-0.27103 0.0135-0.95598 0.0135-0.95598-0.092-2.0217 0.18944-1.8912 0.25672-2.0246 0.19224-0.38098-0.23566 0.19341 0.11079-0.14988 0.10636-0.10541 0.34492 0.10541 0.45129 0 0.18912-0.1874-1.0475 0.42374-0.91077 0.15271 0.93911-1.8611 2.3418 0.51169 3.3349-0.3508 0.78741-0.68385 0 0 0.82697-2.2307 1.748-2.3588 2.6216-2.6008 4.8723-2.0432 2.7513 0.68159 1.6776 3.5192 2.2565 5.8136 0.86954 3.4466 2.9532 2.032 4.513 3.5776 0.72347 0.7169-0.35472 3.4175 0 4.472 0.34016 1.0112 0.5815 2.1759 0.90259 3.1304 0.27901 0.8294 1.1304 1.3431 1.8052 1.7888 0.89405-0.04464 0.21343 0.65871 0.4513 0.8944 1.372 1.3596 5.1792 1.6306 7.2208 1.3416 2.4668-0.3492 5.0928-2.6181 5.8669-4.9192 0.0952-0.28284-0.21274-0.68359 0-0.8944 0.48749-0.48307 1.3284 0.86914 1.3539 0.8944 0.0145 0.01439 2.3933 0.40268 2.7078 0.4472 0.7011 0.09925 3.276 0.19465 4.0617 0 0.1765-0.04373 6.9266-4.0348 7.2208-4.472 1.0135-1.5064 1.8974-2.6927 2.2565-4.472 0.0527-0.26118 0.19318-2.3004 0-2.6832-0.0588-0.11643-0.80409-0.54481-0.4513-0.8944 0.21275-0.21081 0.63349 0.13333 0.9026 0 1.3262-0.65706 2.6502-1.7317 3.6104-2.6832 0.71246-0.70599 0.79161-2.5146 2.2565-1.7888 2.4892 1.2333 2.2057 2.9795 3.1591 5.8136 0.0837 0.24865-0.16729 0.84431 0 1.3416 0.23862 0.70939 1.3813 0.92156 1.8052 1.3416 0.27498 0.27249 0.78201 1.8775 0.9026 2.236 0.27621 0.82112-0.0866 5.0909-0.4513 5.8136-0.0148 0.02927-0.9026 0.48309-0.9026 0.8944 0 0.06169 1.5977-0.1028 1.8052 0 1.2107 0.59985 2.7036 0.893 4.0617 1.3416 1.1004 0.36346 1.4301 2.236 2.2565 2.236 1.0884 0 3.0643-3.5463 4.513-4.0248 0.57784-0.19087 6.6026 0.72902 6.7695 0.8944 0.10638 0.10541-0.15042 0.4472 0 0.4472 0.43358 0 0.82548-6.3698 1.3539-7.1552 0.86177-1.2809 4.5428-2.2656 5.4156-3.1304 1.0355-1.0261 3.9023-5.2151 6.3182-5.8136 0.36161-0.089581 8.3214-0.34912 9.026 0 1.4032 0.69526 1.8634 2.8562 2.2565 4.0248 0.18525 0.55072 0.16691 2.6342 0 3.1304-0.13456 0.39999-0.9026 0.47278-0.9026 0.8944 0 0.08479 1.6255 0.26915 2.2565 0.8944 1.0927 1.0828 1.8052 3.4857 1.8052 4.9192v3.1304c0 0.14907-0.15043 0.4472 0 0.4472 0.21275 0 0.26101-0.35292 0.4513-0.4472 3.0416-1.507 4.0456-2.9866 7.6721-1.7888 0.28544 0.09428 0.6335-0.13333 0.90261 0 0.56675 0.2808 4.1161 3.0765 4.513 2.6832 0.18195-0.1803 0.29528-1.1097 0.4513-1.3416 0.84796-1.2604 2.7921-2.8228 4.0617-3.5776 0.36295-0.2158 4.423-2.0577 4.513-2.236 0.13456-0.26666-0.13454-0.62774 0-0.8944 0.67981-1.3473 0.91827-3.0072 1.8052-4.472 0.36727-0.60657 4.4116-3.8614 4.3693-3.8824-0.40365-0.19999 3.8708-0.31017 3.4195-0.31017" fill="none" stroke="#20262f" stroke-width=".99514"/>

</g>
<g fill="#20262f" stroke="#20262f">
<g stroke-width=".2633px">
<path d="m21.623 32.689c0.58612-1.2699 1.0247-2.8668 2.7335-2.3024 0.05623 0.01858 0.39788 0.11136 0.41003 0.13543 0.04075 0.08075-0.02209 0.18328 0 0.27087 0.27243 1.0798 0.07925 1.8745-0.41003 2.8441-0.04075 0.08076 0.06443 0.20702 0 0.27087-0.05363 0.05315-0.35673-0.55168-0.5467-0.67718-0.67086-0.44318-1.4099-0.15682-2.1868-0.54174z"/>
<path d="m37.341 33.637c-0.4014-1.4123-0.74899-3.9677 1.5034-3.5213 0.47557 0.09425 0.95673 1.1952 0.95673 1.6252 0 0.09028 0.09112 0.36116 0.13668 0.4063 0.03221 0.03192 0.18223 0 0.13668 0-0.60026 0-1.7373 0.05722-2.0501 0.67717-0.04075 0.08076 0.02881 0.18521 0 0.27087-0.10466 0.31115-0.36085 0.38194-0.68338 0.54174z"/>
<path d="m10.113 26.111c1.1622-0.78971 2.3678-1.9351 3.5396-0.57945 0.03856 0.04462 0.28325 0.29843 0.28116 0.32527-7e-3 0.09002-0.11416 0.14585-0.14072 0.23222-0.32742 1.0647-0.90587 1.6474-1.8291 2.2292-0.07689 0.04845-0.05231 0.21035-0.14072 0.23222-0.07359 0.01821-0.01923-0.65494-0.1169-0.85943-0.34491-0.72217-1.1273-0.85368-1.5933-1.58z"/>
<path d="m60.165 14.932c-1.1923 0.87006-3.483 2.0932-3.8554-0.1529-0.07864-0.47422 0.79146-1.3085 1.1976-1.4601 0.08526-0.03182 0.30895-0.21181 0.33553-0.26996 0.01882-0.04111-0.06424-0.16899-0.04818-0.12674 0.21159 0.55663 0.66644 1.5909 1.3622 1.6624 0.09062 0.0093 0.16476-0.09201 0.25581-0.09549 0.33074-0.01262 0.48789 0.19999 0.7525 0.44274z"/>
<path d="m45.107 24.219c-1.0783-0.899-2.5141-1.7445-1.5086-3.2254 0.0331-0.04874 0.21461-0.35018 0.24127-0.35534 0.08942-0.01734 0.17233 0.07006 0.26341 0.07237 1.1229 0.02839 1.844 0.42519 2.6563 1.1515 0.06764 0.06049 0.21854-0.0062 0.26341 0.07237 0.03735 0.06541-0.6318 0.19323-0.80461 0.3411-0.61024 0.52219-0.52924 1.3044-1.1111 1.9434z"/>
<path d="m47.617 6.845c0.84832 1.1151 2.0571 2.2571 0.74306 3.4779-0.04326 0.04018-0.28815 0.2938-0.3153 0.29293-0.09107-0.0029-0.15217-0.10646-0.24043-0.12888-1.0881-0.27633-1.7015-0.82279-2.3294-1.7106-0.052281-0.073939-0.21442-0.042309-0.24043-0.12888-0.02165-0.072027 0.65941-0.048431 0.86119-0.1543 0.71257-0.37385 0.81003-1.1542 1.5213-1.6482z"/>
<path d="m17.137 14.49c-0.72518 1.2792-2.3048 3.3282-3.5772 1.4332-0.26864-0.40012 0.17779-1.5153 0.48495-1.8191 0.06449-0.06377 0.19359-0.31905 0.19365-0.38289 4.2e-5 -0.04513-0.12874-0.12781-0.09655-0.09585 0.42405 0.42099 1.2682 1.178 1.932 0.95947 0.08646-0.02847 0.11194-0.15105 0.19347-0.19135 0.29618-0.1464 0.52772-0.01674 0.86971 0.09657z"/>
<path d="m6.1109 7.9672c0.54174 1.2891 1.4259 2.6932-0.15335 3.5518-0.051975 0.028253-0.35284 0.21354-0.37892 0.206-0.087478-0.025241-0.12066-0.14062-0.20052-0.18409-0.98453-0.53585-1.4415-1.2163-1.8268-2.231-0.032093-0.084499-0.19705-0.09386-0.20052-0.18409-0.0029-0.075098 0.65084 0.11562 0.87285 0.062824 0.78402-0.18646 1.0743-0.91829 1.8873-1.2214z"/>
<path d="m55.002 25.284c0.57966-1.2728 1.0101-2.8719 2.7218-2.316 0.05633 0.01831 0.39844 0.10937 0.41071 0.13339 0.04117 0.08055-0.02116 0.18338 0.0014 0.27086 0.27792 1.0785 0.08878 1.8741-0.39556 2.8461-0.04034 0.08095 0.06551 0.20669 0.0014 0.27086-0.05336 0.0534-0.35953-0.54988-0.55014-0.67444-0.67311-0.43982-1.4107-0.14978-2.1895-0.53081z"/>
<path d="m69.469 23.987c1.098 0.98436 2.7641 2.965 0.6171 3.7743-0.4533 0.17086-1.4517-0.50779-1.6826-0.87195-0.04845-0.07646-0.27103-0.2578-0.33384-0.27202-0.04441-0.01008-0.15431 0.09606-0.11574 0.07204 0.5083-0.31639 1.4404-0.96417 1.3725-1.654-0.0089-0.08985-0.12382-0.14165-0.1454-0.22937-0.07838-0.31864 0.10055-0.51362 0.28788-0.81894z"/>
<path d="m93.052 9.7947c0.83854 1.2093 2.5981 3.1089 3.693 1.108 0.23118-0.42247-0.31483-1.4933-0.64837-1.7684-0.07003-0.057763-0.22181-0.30047-0.22768-0.36404-0.0042-0.044954 0.1166-0.13878 0.08744-0.10409-0.38405 0.45714-1.1559 1.2865-1.8369 1.1281-0.08869-0.020684-0.12521-0.14044-0.21008-0.17331-0.30828-0.11936-0.52709 0.030451-0.85739 0.17383z"/>
<path d="m104.05 2.6712c-0.88569 1.1758-2.1347 3.4379 0.12947 3.8213 0.47807 0.080982 1.3256-0.77583 1.4811-1.1773 0.0327-0.084291 0.21573-0.30478 0.2746-0.33075 0.0416-0.018415 0.17011 0.064756 0.1276 0.04859-0.56036-0.21324-1.6011-0.67061-1.6688-1.3605-9e-3 -0.089898 0.0939-0.16266 0.098-0.25287 0.0149-0.32764-0.19868-0.48473-0.44195-0.7485z"/>
<path d="m105.79 14.572c0.46579-1.3179 0.75439-2.948 2.5083-2.5417 0.0577 0.01341 0.40652 0.07464 0.42086 0.09751 0.048 0.07668-5e-3 0.1845 0.0251 0.26972 0.37146 1.0504 0.25282 1.8593-0.14443 2.8694-0.033 0.08415 0.0834 0.20027 0.0251 0.26972-0.0485 0.05781-0.40641-0.51684-0.60722-0.6245-0.70913-0.38019-1.4185-0.02772-2.2278-0.34023z"/>
<path d="m116.36 19.706c-0.88599-1.1756-2.7197-3.0051-3.7342-0.96291-0.21419 0.43117 0.37398 1.4798 0.7182 1.7417 0.0723 0.05498 0.23359 0.29157 0.24197 0.35487 6e-3 0.04475-0.11098 0.14322-0.0833 0.10742 0.36556-0.47178 1.1038-1.3306 1.7906-1.1989 0.0895 0.01721 0.1307 0.13544 0.21681 0.16497 0.31279 0.10723 0.52548-0.05101 0.84982-0.20717z"/>
<path d="m111.23 27.795c0.93401-1.0456 1.823-2.4467 3.2918-1.4135 0.0483 0.03404 0.34788 0.22137 0.35243 0.24791 0.0152 0.08902-0.075 0.16896-0.0797 0.25912-0.0568 1.1116-0.47522 1.8161-1.2283 2.6024-0.0627 0.06548 8.1e-4 0.21664-0.0797 0.25912-0.0669 0.03535-0.17908-0.63072-0.32393-0.80561-0.51149-0.61761-1.3027-0.557-1.9327-1.1495z"/>
<path d="m127.59 19.718c0.64775 1.2402 1.6463 2.5668 0.1444 3.5521-0.0495 0.03236-0.33376 0.24179-0.36038 0.23643-0.0893-0.01803-0.13203-0.13019-0.21522-0.16702-1.026-0.45308-1.5383-1.0937-2.0072-2.0732-0.0391-0.08154-0.20424-0.07731-0.21523-0.16702-9e-3 -0.07456 0.65828 0.06176 0.87511-0.0091 0.76572-0.25023 0.99378-1.0034 1.7786-1.3723z"/>
<path d="m122.7 31.295c0.0261-1.467 0.43596-4.0133 2.4632-2.943 0.42803 0.22598 0.56883 1.4176 0.44382 1.8294-0.0263 0.08646-0.0177 0.37186 0.0128 0.42809 0.0215 0.03979 0.17452 0.05201 0.13092 0.03898-0.57483-0.17131-1.6803-0.44103-2.1601 0.06338-0.0625 0.06576-0.0263 0.18559-0.0787 0.2594-0.19067 0.26809-0.45658 0.26277-0.81189 0.32375z"/>
<path d="m80.209 20.382c1.0713 0.90723 2.5004 1.7637 1.4834 3.2369-0.03348 0.04848-0.21733 0.34852-0.24403 0.35348-0.08955 0.01666-0.17178-0.07138-0.26284-0.07437-1.1226-0.03699-1.8407-0.43929-2.6472-1.1718-0.06717-0.061-0.21858 0.0046-0.26284-0.07437-0.03683-0.0657 0.63329-0.18839 0.80725-0.33493 0.61429-0.5175 0.5394-1.3003 1.1263-1.9348z"/>
<path d="m91.501 22.365c-0.91127-1.0652-2.1839-2.1369-0.9424-3.4302 0.04089-0.04251 0.27074-0.30963 0.2979-0.31031 0.09097-0.0022 0.15804 0.09767 0.24744 0.11508 1.1023 0.21427 1.7462 0.7251 2.4242 1.5759 0.05658 0.07079 0.2165 0.03012 0.24745 0.11508 0.02579 0.0707-0.65554 0.08571-0.85088 0.20281-0.68984 0.41358-0.74215 1.1982-1.4238 1.7317z"/>
<path d="m137.69 27.623c-1.0565-1.028-2.6396-3.0744-0.4611-3.7961 0.45996-0.15238 1.4296 0.56608 1.6452 0.93928 0.0453 0.07839 0.26019 0.26854 0.32235 0.28529 0.0439 0.01192 0.15815-0.08974 0.11862-0.06734-0.52091 0.29557-1.479 0.9051-1.4395 1.5971 5e-3 0.09018 0.11784 0.14658 0.13586 0.23503 0.0652 0.32155-0.12163 0.50913-0.32138 0.80662z"/>
<path d="m141.57 10.278c1.1184 0.84962 2.261 2.0566 3.5036 0.76446 0.0409-0.0426 0.2988-0.28314 0.29815-0.31005-2e-3 -0.09026-0.10615-0.15165-0.12815-0.23928-0.27-1.0804-0.81651-1.6927-1.7073-2.322-0.0742-0.052443-0.041-0.21281-0.12816-0.23928-0.0725-0.021863-0.0542 0.65301-0.16268 0.85209-0.38304 0.70304-1.1714 0.7933-1.6756 1.4941z"/>
<path d="m147.56 19.477c-1.2201-0.6988-2.511-1.7489-3.5741-0.30798-0.035 0.04749-0.25924 0.31913-0.25508 0.34573 0.0138 0.08923 0.12509 0.13674 0.15837 0.2208 0.40906 1.0366 1.031 1.5735 1.9967 2.0831 0.0804 0.04248 0.0685 0.20575 0.15838 0.2208 0.0747 0.01237-0.0317-0.65446 0.0499-0.8658 0.28783-0.74631 1.0577-0.93706 1.466-1.6967z"/>
<path d="m153.79 3.2612c-1.3771 0.53915-3.6394 1.8132-1.9164 3.3186 0.36378 0.31783 1.5392 0.030214 1.8845-0.23033 0.0725-0.054711 0.34518-0.14696 0.40902-0.13839 0.0452 0.00604 0.1104 0.14367 0.0828 0.10779-0.36365-0.47323-1.0066-1.4043-0.69832-2.0265 0.0402-0.081052 0.16616-0.089492 0.21748-0.1641 0.18641-0.27102 0.0881-0.51587 0.021-0.86696z"/>
<path d="m155.31 27.708c0.95267-1.029 2.2668-2.0504 1.0774-3.3909-0.0392-0.04414-0.25828-0.3199-0.28536-0.32166-0.0909-0.0059-0.16181 0.0914-0.25184 0.1054-1.1099 0.17124-1.7735 0.6567-2.4847 1.4805-0.0593 0.06859-0.21754 0.02169-0.25183 0.1054-0.0284 0.06955 0.65165 0.11107 0.8422 0.23575 0.67296 0.44004 0.69416 1.2261 1.3542 1.7856z"/>
<path d="m167.22 30.822c-0.3389-1.3554-0.47174-3.0052-2.2564-2.7638-0.0588 0.0079-0.4118 0.0365-0.42825 0.05789-0.0552 0.07176-0.0126 0.18414-0.0506 0.26622-0.46937 1.0112-0.42785 1.8276-0.12805 2.8702 0.0249 0.08687-0.10198 0.19164-0.0505 0.26622 0.0428 0.06188 0.45356-0.47677 0.66372-0.56523 0.74202-0.31256 1.4149 0.10437 2.2502-0.13149z"/>
<path d="m161.11 13.99c-1.0578 1.0267-3.1534 2.5552-3.8391 0.38282-0.14477-0.45866 0.59903-1.4053 0.97979-1.6117 0.08-0.04334 0.27602-0.25254 0.29413-0.3138 0.0129-0.04325-0.0875-0.15844-0.0657-0.11883 0.28806 0.52184 0.88439 1.4829 1.5834 1.4573 0.0911-0.0032 0.15019-0.11389 0.23978-0.13003 0.32571-0.05831 0.51133 0.13043 0.8076 0.33413z"/>
<path d="m176.31 28.757c-0.95625-1.1202-2.3418-3.3028-0.1054-3.8221 0.47219-0.10964 1.3707 0.69447 1.5507 1.0858 0.0378 0.0822 0.23405 0.29119 0.29439 0.31356 0.0426 0.0159 0.16584-0.0749 0.12438-0.05625-0.54622 0.24664-1.557 0.76591-1.5822 1.4586-3e-3 0.09023 0.10368 0.15674 0.11338 0.24646 0.035 0.32614-0.16856 0.49583-0.39517 0.77378z"/>
<path d="m174.59 15.797c0.5654 1.2791 0.97794 2.8828 2.6957 2.3457 0.0566-0.01766 0.39963-0.105 0.41219-0.12884 0.0422-0.07997-0.019-0.1836 4e-3 -0.27086 0.28998-1.0753 0.10971-1.873-0.36375-2.8503-0.0394-0.08144 0.0678-0.20598 4e-3 -0.27085-0.0528-0.05382-0.36563 0.54593-0.55767 0.66834-0.67797 0.43244-1.4123 0.13429-2.1953 0.50677z"/>
<path d="m186.6 16.412c-1.2458-0.79306-3.2164-2.4769-1.232-3.6233 0.41898-0.24205 1.516 0.26556 1.8039 0.58739 0.0605 0.0676 0.30994 0.21036 0.37424 0.21421 0.0454 0.0028 0.13638-0.1198 0.10227-0.08993-0.4492 0.39454-1.2618 1.1847-1.0809 1.8543 0.0234 0.08727 0.1455 0.11971 0.18134 0.20266 0.12993 0.30165-0.0144 0.52301-0.14877 0.8546z"/>
<path d="m189.66 6.1792c0.69846 1.2128 1.2795 2.7644 2.9305 2.0507 0.0544-0.023478 0.38622-0.1462 0.39618-0.17122 0.0334-0.083934-0.0385-0.18059-0.0245-0.26981 0.17384-1.0996-0.0904-1.874-0.66526-2.7963-0.0478-0.076871 0.0455-0.21192-0.0246-0.26979-0.0582-0.048005-0.30545 0.58111-0.48339 0.72292-0.62813 0.50091-1.3901 0.28123-2.1291 0.7335z"/>
<path d="m203.71 8.9504c-1.0323 1.0519-3.0899 2.6304-3.8286 0.4751-0.15597-0.45504 0.56442-1.4193 0.94001-1.6348 0.0789-0.045271 0.26973-0.25911 0.28634-0.32078 0.0118-0.043518-0.0914-0.15628-0.0686-0.11721 0.30077 0.51475 0.92046 1.4612 1.6186 1.4188 0.091-0.00535 0.14736-0.11747 0.23653-0.13576 0.32419-0.066123 0.51438 0.11809 0.81556 0.31459z"/>
<path d="m195.71 16.671c1.3605-0.36406 2.8807-1.0495 3.5336 0.61403 0.0215 0.05478 0.1676 0.37451 0.15671 0.39914-0.0365 0.08267-0.15636 0.10029-0.21062 0.17269-0.66454 0.89735-1.405 1.2575-2.4705 1.5037-0.0888 0.02055-0.11964 0.18134-0.21061 0.17268-0.0754-0.0071 0.20062-0.62433 0.17669-0.84934-0.0843-0.79458-0.77863-1.1753-0.97584-2.0135z"/>
<path d="m201.42 29.577c0.1535-1.3881 0.0632-3.0407 1.8645-3.0372 0.0593 1.24e-4 0.41302-0.01822 0.4322 7.98e-4 0.0644 0.06379 0.0373 0.18083 0.0856 0.25728 0.60123 0.94017 0.66993 1.7547 0.51309 2.8276-0.013 0.08941 0.12685 0.17647 0.0856 0.25727-0.0342 0.06696-0.51366-0.41259-0.73384-0.47249-0.77746-0.21171-1.3882 0.29037-2.2478 0.16698z"/>
<path d="m219.24 30.281c-1.2454-0.79356-3.2154-2.4782-1.2305-3.6238 0.41907-0.24188 1.5159 0.26617 1.8036 0.58812 0.0605 0.06761 0.30985 0.21048 0.37415 0.21436 0.0454 0.0028 0.13642-0.11979 0.10231-0.08989-0.44936 0.39436-1.2623 1.1842-1.0817 1.8538 0.0234 0.08728 0.14545 0.11977 0.18125 0.20274 0.12982 0.30171-0.0146 0.52301-0.14912 0.85454z"/>
<path d="m223.09 18.944c1.3753-0.54371 3.9034-1.1543 3.6917 1.1122-0.0447 0.47853-1.0991 1.0682-1.5307 1.1133-0.0907 0.0096-0.35287 0.1277-0.39338 0.17735-0.0286 0.03508 0.0192 0.17962 0.0144 0.13473-0.063-0.59152-0.23965-1.706-0.89465-1.9493-0.0853-0.0318-0.18286 0.04779-0.27182 0.02845-0.32325-0.07052-0.42117-0.31557-0.6154-0.61661z"/>
<path d="m250.43 33.644c0.58612-1.2699 1.0247-2.8668 2.7335-2.3024 0.0563 0.01858 0.39788 0.11136 0.41003 0.13544 0.0408 0.08075-0.0221 0.18328 0 0.27087 0.27243 1.0798 0.0793 1.8745-0.41003 2.8441-0.0408 0.08076 0.0644 0.20702 0 0.27087-0.0537 0.05315-0.35674-0.55167-0.54671-0.67717-0.67086-0.44318-1.4099-0.15682-2.1868-0.54174z"/>
<path d="m266.15 34.592c-0.40141-1.4123-0.749-3.9677 1.5034-3.5213 0.47556 0.09425 0.95673 1.1952 0.95673 1.6252 0 0.09028 0.0911 0.36116 0.13666 0.40631 0.0322 0.03192 0.18224 0 0.13668 0-0.60026 0-1.7373 0.05722-2.0501 0.67717-0.0408 0.08076 0.0288 0.18521 0 0.27087-0.10467 0.31114-0.36085 0.38194-0.68337 0.54174z"/>
<path d="m238.92 27.066c1.1622-0.78971 2.3678-1.9351 3.5396-0.57945 0.0386 0.04462 0.28326 0.29843 0.28117 0.32527-7e-3 0.09002-0.11416 0.14585-0.14072 0.23222-0.32743 1.0647-0.90588 1.6474-1.8291 2.2291-0.0769 0.04845-0.0523 0.21035-0.14071 0.23222-0.0736 0.01821-0.0192-0.65494-0.11691-0.85943-0.3449-0.72217-1.1273-0.85368-1.5933-1.58z"/>
<path d="m288.97 15.887c-1.1923 0.87006-3.483 2.0932-3.8554-0.1529-0.0787-0.47422 0.79145-1.3085 1.1976-1.4601 0.0853-0.03182 0.30895-0.21181 0.33553-0.26996 0.0188-0.04111-0.0643-0.16899-0.0482-0.12674 0.21158 0.55663 0.66643 1.5909 1.3622 1.6624 0.0907 0.0093 0.16476-0.09201 0.25581-0.09549 0.33074-0.01262 0.4879 0.19999 0.75251 0.44274z"/>
<path d="m273.92 25.175c-1.0783-0.899-2.5141-1.7445-1.5086-3.2254 0.0331-0.04874 0.21461-0.35018 0.24126-0.35534 0.0894-0.01734 0.17234 0.07007 0.26342 0.07237 1.1229 0.02839 1.844 0.42519 2.6563 1.1515 0.0677 0.06049 0.21854-0.0062 0.26341 0.07237 0.0374 0.06541-0.63181 0.19323-0.8046 0.3411-0.61024 0.52219-0.52925 1.3044-1.1111 1.9434z"/>
<path d="m276.43 7.8005c0.84832 1.1151 2.0571 2.2571 0.74306 3.4779-0.0433 0.04018-0.28816 0.2938-0.3153 0.29293-0.0911-0.0029-0.15217-0.10646-0.24044-0.12888-1.0881-0.27634-1.7015-0.82279-2.3294-1.7106-0.0523-0.073939-0.21441-0.042309-0.24042-0.12887-0.0217-0.072027 0.6594-0.048431 0.86119-0.1543 0.71256-0.37385 0.81002-1.1542 1.5213-1.6482z"/>
<path d="m245.21 14.841c-0.72519 1.2792-2.3048 3.3282-3.5772 1.4332-0.26864-0.40012 0.17779-1.5153 0.48495-1.8191 0.0645-0.06377 0.19359-0.31905 0.19365-0.38289 5e-5 -0.04513-0.12873-0.12781-0.0966-0.09585 0.42406 0.42099 1.2682 1.178 1.932 0.95947 0.0865-0.02847 0.11193-0.15105 0.19347-0.19135 0.29617-0.1464 0.52772-0.01674 0.86971 0.09657z"/>
<path d="m232.48 8.3182c0.54174 1.2891 1.4258 2.6932-0.15336 3.5518-0.052 0.02825-0.35284 0.21354-0.37892 0.206-0.0875-0.02524-0.12066-0.14062-0.20051-0.18409-0.98454-0.53585-1.4415-1.2163-1.8268-2.231-0.0321-0.084499-0.19704-0.09386-0.20052-0.18409-3e-3 -0.075098 0.65084 0.11562 0.87286 0.062825 0.78401-0.18646 1.0743-0.9183 1.8872-1.2214z"/>
<path d="m283.81 26.24c0.57966-1.2728 1.0101-2.8719 2.7218-2.316 0.0564 0.01831 0.39844 0.10937 0.4107 0.13339 0.0412 0.08055-0.0212 0.18338 1e-3 0.27086 0.27792 1.0785 0.0888 1.8741-0.39555 2.8461-0.0403 0.08095 0.0655 0.20669 1e-3 0.27086-0.0534 0.0534-0.35953-0.54988-0.55014-0.67444-0.67311-0.43983-1.4107-0.14978-2.1895-0.53081z"/>
<path d="m298.28 24.942c1.098 0.98436 2.7641 2.965 0.6171 3.7743-0.4533 0.17086-1.4517-0.50779-1.6826-0.87195-0.0485-0.07645-0.27103-0.2578-0.33384-0.27202-0.0444-0.01008-0.15431 0.09606-0.11573 0.07204 0.5083-0.31639 1.4404-0.96417 1.3726-1.654-9e-3 -0.08985-0.12382-0.14165-0.1454-0.22937-0.0784-0.31864 0.10053-0.51362 0.28788-0.81894z"/>
<path d="m321.86 10.75c0.83854 1.2093 2.5981 3.1089 3.693 1.108 0.23117-0.42247-0.31484-1.4933-0.64837-1.7684-0.0701-0.05776-0.22181-0.30047-0.22768-0.36404-4e-3 -0.044954 0.11659-0.13878 0.0875-0.10409-0.38405 0.45714-1.1559 1.2865-1.8369 1.128-0.0887-0.02068-0.12521-0.14044-0.21008-0.1733-0.30828-0.11936-0.52709 0.03045-0.85739 0.17383z"/>
<path d="m332.86 3.6267c-0.88568 1.1758-2.1347 3.4379 0.12948 3.8213 0.47806 0.080983 1.3255-0.77583 1.4811-1.1773 0.0327-0.084291 0.21573-0.30478 0.27459-0.33075 0.0416-0.018416 0.17012 0.064756 0.1276 0.048589-0.56035-0.21324-1.6011-0.67061-1.6688-1.3605-9e-3 -0.089898 0.0939-0.16266 0.098-0.25287 0.0149-0.32764-0.19868-0.48473-0.44195-0.7485z"/>
<path d="m334.6 15.528c0.46578-1.3179 0.75438-2.948 2.5083-2.5417 0.0577 0.01341 0.40652 0.07464 0.42086 0.09751 0.048 0.07668-5e-3 0.1845 0.0251 0.26972 0.37146 1.0504 0.25281 1.8593-0.14442 2.8694-0.033 0.08415 0.0834 0.20027 0.0251 0.26972-0.0485 0.05781-0.4064-0.51684-0.60721-0.6245-0.70914-0.38019-1.4185-0.02772-2.2278-0.34023z"/>
<path d="m345.17 20.662c-0.88598-1.1756-2.7197-3.0051-3.7342-0.96291-0.2142 0.43117 0.37397 1.4798 0.71819 1.7417 0.0723 0.05498 0.23359 0.29157 0.24198 0.35487 6e-3 0.04475-0.11099 0.14322-0.0833 0.10742 0.36557-0.47178 1.1039-1.3306 1.7906-1.1989 0.0895 0.01721 0.1307 0.13544 0.21682 0.16497 0.31279 0.10723 0.52547-0.05101 0.84981-0.20717z"/>
<path d="m340.04 28.75c0.93401-1.0456 1.823-2.4467 3.2918-1.4135 0.0483 0.03404 0.34789 0.22137 0.35243 0.24791 0.0152 0.08902-0.075 0.16895-0.0797 0.25912-0.0568 1.1116-0.47522 1.8161-1.2283 2.6024-0.0627 0.06548 8e-4 0.21664-0.0797 0.25912-0.0669 0.03535-0.17909-0.63072-0.32393-0.80562-0.51149-0.61761-1.3027-0.557-1.9327-1.1495z"/>
<path d="m356.39 20.673c0.64775 1.2402 1.6463 2.5668 0.14439 3.5521-0.0495 0.03236-0.33375 0.24179-0.36037 0.23643-0.0893-0.01803-0.13203-0.13019-0.21523-0.16702-1.026-0.45308-1.5383-1.0937-2.0072-2.0732-0.0391-0.08154-0.20423-0.07731-0.21522-0.16702-9e-3 -0.07456 0.65827 0.06176 0.87511-0.0091 0.76571-0.25023 0.99377-1.0034 1.7786-1.3723z"/>
<path d="m351.51 32.251c0.0261-1.467 0.43595-4.0133 2.4632-2.943 0.42802 0.22598 0.56882 1.4176 0.44382 1.8294-0.0263 0.08646-0.0177 0.37186 0.0128 0.4281 0.0215 0.03979 0.17452 0.05201 0.13092 0.03898-0.57483-0.17131-1.6803-0.44103-2.1601 0.06338-0.0625 0.06576-0.0263 0.18559-0.0787 0.2594-0.19067 0.26809-0.45657 0.26277-0.81188 0.32376z"/>
<path d="m309.02 21.337c1.0713 0.90723 2.5004 1.7637 1.4834 3.2369-0.0335 0.04848-0.21733 0.34852-0.24403 0.35348-0.0896 0.01666-0.17178-0.07138-0.26284-0.07437-1.1226-0.03699-1.8407-0.4393-2.6472-1.1718-0.0672-0.061-0.21859 0.0046-0.26285-0.07437-0.0368-0.0657 0.63329-0.18839 0.80725-0.33493 0.61429-0.5175 0.53939-1.3003 1.1263-1.9348z"/>
<path d="m320.31 23.321c-0.91127-1.0652-2.1839-2.1369-0.9424-3.4302 0.0409-0.04251 0.27074-0.30963 0.2979-0.31031 0.091-0.0022 0.15804 0.09766 0.24744 0.11508 1.1022 0.21427 1.7462 0.7251 2.4242 1.5759 0.0566 0.07079 0.2165 0.03013 0.24745 0.11508 0.0258 0.0707-0.65553 0.08571-0.85088 0.20281-0.68985 0.41358-0.74216 1.1982-1.4238 1.7317z"/>
<path d="m366.5 28.579c-1.0566-1.028-2.6396-3.0744-0.46111-3.7961 0.45996-0.15238 1.4296 0.56608 1.6452 0.93928 0.0453 0.07839 0.26019 0.26854 0.32235 0.28529 0.0439 0.01192 0.15815-0.08974 0.11861-0.06734-0.52091 0.29557-1.479 0.9051-1.4395 1.5971 5e-3 0.09017 0.11784 0.14658 0.13587 0.23503 0.0652 0.32155-0.12163 0.50913-0.32138 0.80662z"/>
<path d="m370.38 11.234c1.1184 0.84962 2.261 2.0566 3.5036 0.76446 0.0409-0.0426 0.29881-0.28314 0.29816-0.31005-2e-3 -0.09025-0.10616-0.15165-0.12815-0.23928-0.27001-1.0804-0.81652-1.6927-1.7073-2.322-0.0742-0.052443-0.041-0.21281-0.12816-0.23928-0.0725-0.021863-0.0542 0.65301-0.16268 0.85209-0.38303 0.70304-1.1713 0.7933-1.6756 1.4941z"/>
<path d="m376.37 20.432c-1.2201-0.6988-2.511-1.7489-3.5741-0.30798-0.035 0.04749-0.25926 0.31913-0.25509 0.34573 0.0138 0.08923 0.1251 0.13674 0.15838 0.2208 0.40905 1.0366 1.031 1.5735 1.9967 2.0831 0.0804 0.04248 0.0685 0.20575 0.15838 0.2208 0.0747 0.01237-0.0317-0.65446 0.0499-0.8658 0.28783-0.74631 1.0577-0.93706 1.466-1.6967z"/>
<path d="m382.6 4.2167c-1.3771 0.53915-3.6394 1.8132-1.9164 3.3186 0.36379 0.31783 1.5392 0.030214 1.8845-0.23033 0.0725-0.054711 0.34518-0.14696 0.40902-0.13839 0.0452 0.00604 0.1104 0.14367 0.0828 0.10779-0.36366-0.47323-1.0066-1.4043-0.69832-2.0265 0.0402-0.081052 0.16615-0.089492 0.21748-0.1641 0.1864-0.27102 0.0881-0.51587 0.021-0.86696z"/>
<path d="m384.12 28.663c0.95267-1.029 2.2668-2.0504 1.0774-3.3909-0.0392-0.04414-0.25828-0.3199-0.28536-0.32166-0.0909-0.0059-0.16181 0.0914-0.25183 0.1054-1.1099 0.17124-1.7735 0.6567-2.4847 1.4805-0.0593 0.06859-0.21755 0.02169-0.25184 0.1054-0.0284 0.06955 0.65165 0.11107 0.8422 0.23575 0.67296 0.44004 0.69416 1.2261 1.3542 1.7856z"/>
<path d="m396.02 31.777c-0.3389-1.3554-0.47173-3.0052-2.2564-2.7638-0.0588 0.0079-0.41179 0.0365-0.42825 0.05789-0.0552 0.07176-0.0126 0.18414-0.0506 0.26622-0.46936 1.0112-0.42785 1.8276-0.12805 2.8702 0.0249 0.08687-0.10198 0.19164-0.0505 0.26622 0.0428 0.06188 0.45355-0.47677 0.66372-0.56523 0.74202-0.31256 1.4149 0.10436 2.2502-0.13149z"/>
<path d="m389.91 14.945c-1.0578 1.0267-3.1534 2.5552-3.8391 0.38282-0.14478-0.45866 0.59903-1.4053 0.97979-1.6117 0.08-0.04334 0.27601-0.25254 0.29413-0.3138 0.0129-0.04325-0.0875-0.15844-0.0657-0.11883 0.28806 0.52184 0.88438 1.4829 1.5834 1.4573 0.0911-0.0032 0.1502-0.11389 0.23979-0.13003 0.32571-0.05831 0.51134 0.13043 0.8076 0.33413z"/>
<path d="m405.12 29.713c-0.95623-1.1202-2.3418-3.3028-0.1054-3.8221 0.4722-0.10964 1.3707 0.69447 1.5507 1.0858 0.0378 0.0822 0.23405 0.29119 0.2944 0.31356 0.0426 0.0159 0.16583-0.0749 0.12438-0.05625-0.54623 0.24664-1.557 0.76591-1.5822 1.4586-3e-3 0.09023 0.10368 0.15674 0.11339 0.24646 0.035 0.32614-0.16856 0.49583-0.39518 0.77378z"/>
<path d="m403.4 16.753c0.56539 1.2791 0.97793 2.8828 2.6957 2.3457 0.0566-0.01766 0.39964-0.105 0.4122-0.12884 0.0422-0.07997-0.019-0.1836 4e-3 -0.27086 0.28999-1.0753 0.10971-1.873-0.36374-2.8503-0.0394-0.08144 0.0678-0.20598 4e-3 -0.27085-0.0528-0.05382-0.36564 0.54593-0.55767 0.66834-0.67797 0.43244-1.4123 0.13429-2.1953 0.50677z"/>
<path d="m415.41 17.368c-1.2458-0.79306-3.2164-2.4769-1.232-3.6233 0.41896-0.24205 1.516 0.26556 1.8039 0.58739 0.0605 0.0676 0.30995 0.21036 0.37424 0.21421 0.0454 0.0028 0.13638-0.1198 0.10227-0.08993-0.4492 0.39454-1.2618 1.1847-1.0809 1.8543 0.0234 0.08727 0.1455 0.11971 0.18134 0.20266 0.12993 0.30165-0.0144 0.52301-0.14876 0.8546z"/>
<path d="m418.47 7.1346c0.69846 1.2128 1.2795 2.7644 2.9305 2.0507 0.0544-0.023478 0.38622-0.1462 0.39618-0.17122 0.0334-0.083934-0.0385-0.18059-0.0245-0.26981 0.17385-1.0996-0.0904-1.874-0.66525-2.7963-0.0478-0.076871 0.0455-0.21192-0.0246-0.26979-0.0582-0.048005-0.30546 0.58111-0.48339 0.72292-0.62814 0.50091-1.3901 0.28122-2.1291 0.7335z"/>
<path d="m432.52 9.9059c-1.0323 1.0519-3.0899 2.6304-3.8286 0.4751-0.15597-0.45504 0.56442-1.4193 0.94-1.6348 0.0789-0.045271 0.26974-0.25911 0.28634-0.32078 0.0118-0.043518-0.0914-0.15628-0.0686-0.11721 0.30078 0.51475 0.92047 1.4612 1.6186 1.4188 0.091-0.00535 0.14735-0.11747 0.23652-0.13576 0.32419-0.066123 0.5144 0.11809 0.81557 0.31459z"/>
<path d="m424.52 17.627c1.3605-0.36406 2.8807-1.0495 3.5337 0.61403 0.0215 0.05478 0.16758 0.37451 0.1567 0.39914-0.0365 0.08267-0.15636 0.10029-0.21062 0.17269-0.66455 0.89735-1.405 1.2575-2.4705 1.5037-0.0888 0.02056-0.11965 0.18134-0.21062 0.17268-0.0754-0.0071 0.20062-0.62433 0.17671-0.84934-0.0843-0.79458-0.77865-1.1753-0.97586-2.0135z"/>
<path d="m430.23 30.532c0.15351-1.3881 0.0632-3.0407 1.8644-3.0372 0.0593 1.24e-4 0.41303-0.01822 0.43222 7.86e-4 0.0644 0.06379 0.0373 0.18083 0.0856 0.25728 0.60123 0.94017 0.66993 1.7547 0.5131 2.8276-0.013 0.08941 0.12685 0.17647 0.0856 0.25727-0.0342 0.06696-0.51366-0.41259-0.73384-0.47249-0.77747-0.21171-1.3882 0.29037-2.2478 0.16698z"/>
<path d="m448.05 31.237c-1.2454-0.79356-3.2154-2.4782-1.2305-3.6238 0.41907-0.24188 1.5159 0.26617 1.8036 0.58812 0.0605 0.06761 0.30986 0.21048 0.37416 0.21436 0.0454 0.0028 0.13641-0.11979 0.1023-0.08989-0.44936 0.39436-1.2623 1.1842-1.0817 1.8538 0.0234 0.08728 0.14546 0.11977 0.18125 0.20274 0.12981 0.3017-0.0146 0.52301-0.14913 0.85454z"/>
<path d="m457.52 18.339c-0.34424 1.427-1.2978 3.8262-3.0449 2.3484-0.36888-0.312-0.24747-1.5057-0.0359-1.8812 0.0444-0.07891 0.0981-0.35935 0.0805-0.42076-0.0124-0.04336-0.15918-0.088-0.11943-0.06597 0.52412 0.28993 1.5451 0.7892 2.1232 0.39898 0.0754-0.05072 0.066-0.17562 0.1332-0.23652 0.24446-0.22111 0.50297-0.15919 0.86321-0.14294z"/>
</g>
<path d="m0.16239 30.382c0.85738 0.0058 1.8331-0.2477 1.9459 1.5609 0.00371 0.05952 0.037489 0.41269 0.027068 0.43397-0.034944 0.07139-0.10807 0.05664-0.15153 0.11374-0.53574 0.70398-1.1564 0.85998-1.8216 0.81716 0.005508-0.70545 0.00556-2.1975 1.3979e-4 -2.9258z" stroke-width=".20728px"/>
<g stroke-width=".2633px">
<path d="m0.15879 48.937c0.61393 0.14782 1.2643 0.59004 1.3706 1.4762 7e-3 0.05833 0.1828 0.57502 0.16599 0.59617-0.056351 0.07095-0.17674 0.05827-0.2473 0.1154-0.43492 0.35213-0.85433 0.56953-1.3017 0.6957 0.025876-1.2755 0.01766-1.7534 0.0124-2.8835z"/>
<path d="m3.0072 16.518c1.3081 0.51938 2.9388 0.87706 2.4516 2.5954-0.016033 0.05655-0.093215 0.39914-0.1169 0.41232-0.079441 0.04421-0.1858-0.01311-0.27304 0.01297-1.0754 0.32131-1.8857 0.16812-2.8865-0.26976-0.083372-0.03643-0.20559 0.07369-0.27304 0.01297-0.056144-0.05054 0.53902-0.37949 0.65644-0.57352 0.41463-0.68522 0.09062-1.403 0.44145-2.1904z"/>
<path d="m6.851 73.063c-1.2312-0.67928-2.8031-1.2386-2.1004-2.8821 0.023123-0.05408 0.14345-0.38424 0.16863-0.39434 0.084454-0.0339 0.18263 0.03631 0.2725 0.02139 1.1078-0.18383 1.892 0.06975 2.8288 0.62965 0.078046 0.04659 0.21335-0.04731 0.2725 0.02139 0.049235 0.05718-0.58316 0.30882-0.72442 0.48657-0.49883 0.6277-0.26911 1.3804-0.7177 2.1174z"/>
<path d="m7.311 89.94c-1.2312-0.67928-2.8031-1.2386-2.1004-2.8821 0.023123-0.05408 0.14345-0.38424 0.16863-0.39434 0.084454-0.0339 0.18263 0.0363 0.2725 0.02139 1.1078-0.18383 1.892 0.06975 2.8288 0.62965 0.078046 0.04659 0.21335-0.04731 0.2725 0.02139 0.049235 0.05718-0.58316 0.30882-0.72442 0.48657-0.49883 0.6277-0.26912 1.3804-0.7177 2.1174z"/>
<path d="m1.8134 105.21c0.0956-1.3932-0.063438-3.0407 1.7364-3.1108 0.059232-2e-3 0.41192-0.0351 0.43187-0.0168 0.066913 0.0613 0.044618 0.17922 0.096563 0.25341 0.63984 0.91483 0.74242 1.7259 0.63038 2.8043-0.00926 0.0898 0.13413 0.1711 0.096562 0.25341-0.031208 0.0684-0.53041-0.39123-0.75287-0.44213-0.78561-0.17976-1.3749 0.34686-2.2389 0.25872z"/>
<path d="m5.4468 130.45c-0.68061-1.2228-1.7142-2.5228-0.23912-3.5471 0.048199-0.0341 0.32722-0.25042 0.35392-0.2458 0.089721 0.0156 0.13541 0.12676 0.21961 0.16129 1.0377 0.42606 1.567 1.053 2.0618 2.0199 0.041236 0.0804 0.20624 0.0719 0.21961 0.16129 0.011174 0.0743-0.65969-0.0445-0.87456 0.032-0.75877 0.27021-0.96666 1.0291-1.7413 1.4184z"/>
<path d="m0.17995 117.22c0.77969-1.1632 1.4653-2.6723 3.0638-1.8496 0.052772 0.0266 0.37534 0.1718 0.38355 0.1974 0.027461 0.0861-0.050861 0.17759-0.042839 0.26754 0.09833 1.1088-0.21811 1.8636-0.85466 2.7453-0.052925 0.0734 0.030962 0.21446-0.042839 0.26752-0.061323 0.0442-0.2651-0.60025-0.43284-0.75371-0.59251-0.54187-1.3677-0.3738-2.0741-0.87458z"/>
<path d="m8.2492 145.65c-1.263 0.61946-2.6195 1.585-3.5867 0.0791-0.032215-0.0492-0.23793-0.33506-0.23209-0.36129 0.019764-0.0882 0.13382-0.12841 0.17236-0.21024 0.47563-1.0083 1.1312-1.5044 2.1279-1.9514 0.082926-0.0373 0.081664-0.20098 0.17236-0.21024 0.075399-8e-3 -0.074139 0.65108-0.00658 0.86718 0.23872 0.76314 0.99455 1.0026 1.3526 1.7868z"/>
<path d="m8.3513 164.5c-1.2355-0.67164-2.8109-1.2212-2.1185-2.869 0.0223-0.0544 0.14106-0.38511 0.16611-0.39538 0.084268-0.0344 0.18286 0.0353 0.27263 0.0197 1.1066-0.19071 1.8924 0.0579 2.8328 0.61206 0.078287 0.0461 0.21305-0.0486 0.27263 0.0197 0.049714 0.0568-0.5812 0.31244-0.72136 0.49101-0.49485 0.63079-0.26039 1.382-0.7043 2.1218z"/>
<path d="m0.29417 193.36c0.53247-0.50971 1.3253-1.1431 2.0688-1.3769 0.7435-0.23382 1.4377-0.0681 1.7729 1.0204 0.1416 0.45964-0.60886 1.4012-0.99104 1.6049-0.080198 0.0427-0.2778 0.25063-0.29633 0.31178-0.013079 0.0432 0.086342 0.15902 0.064756 0.11927-0.2844-0.52382-0.87402-1.4889-1.5732-1.4682-0.091055 3e-3 -0.15095 0.1129-0.24073 0.12835-0.3261 0.0561-0.51039-0.1339-0.80523-0.33967z"/>
<path d="m0.31215 212.78c0.49888-1.3814 1.7102-3.6636 3.2847-2.0062 0.33246 0.34989 0.080662 1.5234-0.17086 1.8739-0.05279 0.0735-0.13698 0.34666-0.12625 0.40961 0.00761 0.0445 0.14851 0.10465 0.11138 0.0785-0.48917-0.34474-1.4493-0.95107-2.0668-0.62553-0.080422 0.0424-0.084844 0.16749-0.15842 0.22073-0.26727 0.19346-0.51743 0.10406-0.87375 0.049z"/>
<path d="m0.51422 173.71c1.4057 0.46108 3.7371 1.6063 2.1028 3.2058-0.34502 0.33774-1.535 0.11643-1.8946-0.12432-0.075444-0.0505-0.35301-0.12738-0.41627-0.11525-0.044662 9e-3 -0.10202 0.14963-0.076518 0.11222 0.33606-0.49285 0.92475-1.4585 0.58152-2.0624-0.044693-0.0787-0.17101-0.08-0.2265-0.15164-0.20158-0.26012-0.11738-0.5101-0.070414-0.86439z"/>
</g>
</g>
<g>
<ellipse cx="4.0208" cy="6.855" rx="2.4992" ry="2.4765" fill="#68cba3"/>
<g fill="#f93a5b">
<ellipse cx="16.427" cy="12.245" rx="2.4992" ry="2.4765"/>
<ellipse cx="9.5193" cy="28.254" rx="2.4992" ry="2.4765"/>
<ellipse cx="45.217" cy="6.1344" rx="2.4992" ry="2.4765"/>
<ellipse cx="55.501" cy="27.809" rx="2.4992" ry="2.4765"/>
<ellipse cx="94.021" cy="22.721" rx="2.4992" ry="2.4765"/>
<ellipse cx="93.756" cy="7.7199" rx="2.4992" ry="2.4765"/>
</g>
<g fill="#68cba3">
<ellipse cx="22.539" cy="34.983" rx="2.4992" ry="2.4765"/>
<ellipse cx="60.139" cy="12.418" rx="2.4992" ry="2.4765"/>
<ellipse cx="107.01" cy="16.879" rx="2.4992" ry="2.4765"/>
</g>
<g fill="#fbcf4c">
<ellipse cx="39.75" cy="34.458" rx="2.4992" ry="2.4765"/>
<ellipse cx="47.694" cy="23.832" rx="2.4992" ry="2.4765"/>
<ellipse cx="77.765" cy="20.119" rx="2.4992" ry="2.4765"/>
<ellipse cx="106.41" cy="2.4765" rx="2.4992" ry="2.4765"/>
<ellipse cx="116.26" cy="21.711" rx="2.4992" ry="2.4765"/>
</g>
<g fill="#68cba3">
<ellipse cx="67.177" cy="24.432" rx="2.4992" ry="2.4765"/>
<ellipse cx="155.32" cy="3.4955" rx="2.4992" ry="2.4765"/>
<ellipse cx="188.74" cy="15.839" rx="2.4992" ry="2.4765"/>
<ellipse cx="166.2" cy="32.869" rx="2.4992" ry="2.4765"/>
<ellipse cx="139.71" cy="27.401" rx="2.4992" ry="2.4765"/>
</g>
<g fill="#f93a5b">
<ellipse cx="178.57" cy="28.603" rx="2.4992" ry="2.4765"/>
<ellipse cx="141.08" cy="7.6941" rx="2.4992" ry="2.4765"/>
<ellipse cx="125.22" cy="18.515" rx="2.4992" ry="2.4765"/>
</g>
<g fill="#fbcf4c">
<ellipse cx="160.53" cy="12.586" rx="2.4992" ry="2.4765"/>
<ellipse cx="148.41" cy="21.183" rx="2.4992" ry="2.4765"/>
<ellipse cx="124.32" cy="32.745" rx="2.4992" ry="2.4765"/>
</g>
<g fill="#f93a5b">
<ellipse cx="111.31" cy="30.374" rx="2.4992" ry="2.4765"/>
<ellipse cx="190.14" cy="3.6919" rx="2.4992" ry="2.4765"/>
<ellipse cx="203.46" cy="6.6565" rx="2.4992" ry="2.4765"/>
</g>
<g>
<ellipse cx="175.19" cy="13.92" rx="2.4992" ry="2.4765" fill="#fbcf4c"/>
<ellipse cx="194.93" cy="19.256" rx="2.4992" ry="2.4765" fill="#fbcf4c"/>
<ellipse cx="202.78" cy="31.553" rx="2.4992" ry="2.4765" fill="#68cba3"/>
<ellipse cx="221.6" cy="29.711" rx="2.4992" ry="2.4765" fill="#f93a5b"/>
<ellipse cx="223.23" cy="21.192" rx="2.4992" ry="2.4765" fill="#68cba3"/>
<ellipse cx="230.43" cy="7.607" rx="2.4992" ry="2.4765" fill="#fbcf4c"/>
</g>
<g fill="#f93a5b">
<ellipse cx="245.12" cy="13.525" rx="2.4992" ry="2.4765"/>
<ellipse cx="238.21" cy="29.534" rx="2.4992" ry="2.4765"/>
<ellipse cx="273.91" cy="7.4151" rx="2.4992" ry="2.4765"/>
<ellipse cx="284.56" cy="28.548" rx="2.4992" ry="2.4765"/>
<ellipse cx="322.71" cy="24.002" rx="2.4992" ry="2.4765"/>
<ellipse cx="322.45" cy="9.0005" rx="2.4992" ry="2.4765"/>
</g>
<g fill="#68cba3">
<ellipse cx="251.23" cy="36.264" rx="2.4992" ry="2.4765"/>
<ellipse cx="288.83" cy="13.699" rx="2.4992" ry="2.4765"/>
<ellipse cx="335.7" cy="18.159" rx="2.4992" ry="2.4765"/>
</g>
<g fill="#fbcf4c">
<ellipse cx="268.44" cy="35.739" rx="2.4992" ry="2.4765"/>
<ellipse cx="276.38" cy="25.112" rx="2.4992" ry="2.4765"/>
<ellipse cx="306.46" cy="21.4" rx="2.4992" ry="2.4765"/>
<ellipse cx="335.1" cy="3.7572" rx="2.4992" ry="2.4765"/>
<ellipse cx="344.95" cy="22.991" rx="2.4992" ry="2.4765"/>
</g>
<g fill="#68cba3">
<ellipse cx="295.87" cy="25.713" rx="2.4992" ry="2.4765"/>
<ellipse cx="384.01" cy="4.7761" rx="2.4992" ry="2.4765"/>
<ellipse cx="417.43" cy="17.119" rx="2.4992" ry="2.4765"/>
<ellipse cx="394.89" cy="34.15" rx="2.4992" ry="2.4765"/>
<ellipse cx="368.4" cy="28.681" rx="2.4992" ry="2.4765"/>
</g>
<g fill="#f93a5b">
<ellipse cx="407.26" cy="29.884" rx="2.4992" ry="2.4765"/>
<ellipse cx="369.77" cy="8.9748" rx="2.4992" ry="2.4765"/>
<ellipse cx="353.91" cy="19.796" rx="2.4992" ry="2.4765"/>
</g>
<g fill="#fbcf4c">
<ellipse cx="389.22" cy="13.866" rx="2.4992" ry="2.4765"/>
<ellipse cx="377.1" cy="22.464" rx="2.4992" ry="2.4765"/>
<ellipse cx="353.02" cy="34.026" rx="2.4992" ry="2.4765"/>
</g>
<g fill="#f93a5b">
<ellipse cx="340" cy="30.082" rx="2.4992" ry="2.4765"/>
<ellipse cx="418.83" cy="4.9725" rx="2.4992" ry="2.4765"/>
<ellipse cx="432.15" cy="7.9371" rx="2.4992" ry="2.4765"/>
</g>
<g>
<ellipse cx="403.88" cy="15.2" rx="2.4992" ry="2.4765" fill="#fbcf4c"/>
<ellipse cx="423.99" cy="19.814" rx="2.4992" ry="2.4765" fill="#fbcf4c"/>
<ellipse cx="431.47" cy="32.834" rx="2.4992" ry="2.4765" fill="#68cba3"/>
<ellipse cx="450.3" cy="30.992" rx="2.4992" ry="2.4765" fill="#f93a5b"/>
<ellipse cx="456.66" cy="16.33" rx="2.4992" ry="2.4765" fill="#68cba3"/>
<ellipse cx="9.7007" cy="72.858" rx="2.4992" ry="2.4765" fill="#68cba3"/>
<path d="m0.16239 30.382a2.4992 2.4765 0 0 1-2e-8 2.984" fill="#fbcf4c"/>
<ellipse cx="5.709" cy="20.119" rx="2.4992" ry="2.4765" fill="#fbcf4c"/>
</g>
<g fill="#f93a5b">
<ellipse cx="9.0388" cy="143.37" rx="2.4992" ry="2.4765"/>
<path d="m0.16138 172.41a2.4992 2.4765 0 0 1 1.1377 2.0763 2.4992 2.4765 0 0 1-1.1369 2.0768"/>
<path d="m0.169 117.1a2.4992 2.4765 0 0 1 2.9897 0.73658 2.4992 2.4765 0 0 1-0.00325 3.0527 2.4992 2.4765 0 0 1-2.9913 0.73033"/>
<path d="m0.14932 192.48a2.4992 2.4765 0 0 1 2.4564 1.1074 2.4992 2.4765 0 0 1 0.00868 2.6741 2.4992 2.4765 0 0 1-2.4492 1.123"/>
</g>
<g>
<ellipse cx="9.7214" cy="89.258" rx="2.4992" ry="2.4765" fill="#fbcf4c"/>
<ellipse cx="8.0149" cy="131.87" rx="2.4992" ry="2.4765" fill="#fbcf4c"/>
<ellipse cx="4.2607" cy="106.84" rx="2.4992" ry="2.4765" fill="#68cba3"/>
<ellipse cx="10.745" cy="164" rx="2.4992" ry="2.4765" fill="#68cba3"/>
</g>
<path d="m0.16224 212.58a2.4992 2.4765 0 0 1 3.2266 0.47698 2.4992 2.4765 0 0 1 0.00168 3.2327 2.4992 2.4765 0 0 1-3.2261 0.48027" fill="#fbcf4c" fill-opacity=".99595"/>
<ellipse cx="381.93" cy="28.28" rx="2.4992" ry="2.4765" fill="#f93a5b"/>
<ellipse cx="153.39" cy="28.163" rx="2.4992" ry="2.4765" fill="#f93a5b"/>
</g>
<g stroke="#20262f">
<path d="m2.3457 16.331c0 0.20579-0.034141 0.41438 0 0.61737 0.066834 0.39737 0.2287 0.82442 0.31151 1.2347 0.06989 0.34628-0.06989 0.73411 0 1.0804 0.022768 0.1128 0.14294 0.19435 0.15576 0.30868 0.11793 1.0517-0.018352 2.0517 0.15576 3.0868 0.25486 1.5153-0.013982 4.0822-0.31151 5.5563-0.15951 0.79032-0.72751 2.6219-0.46727 3.3955 0.27875 0.82864 0.16626 1.6058 0.31151 2.4695 0.095127 0.56558 0.21929 1.1495 0.31151 1.6978 0.10093 0.60009-0.076198 1.2481 0 1.8521 0.19309 1.5307 0.37808 4.9402 0.15576 6.4824-0.15936 1.1054-0.2012 2.1866-0.46727 3.2412-0.037776 0.14973 0.049255 0.31661 0 0.46303-0.14119 0.41971-0.57778 2.0315-0.46727 2.4695 0.51766 2.0518 1.1024 4.097 1.4018 6.1737 0.05874 0.40744-0.051518 0.82634 0 1.2347 0.026552 0.21048 0.10384 0.41158 0.15576 0.61737 0.051919 0.30869 0.12088 0.61503 0.15576 0.92606 0.17811 1.5885 0.048028 3.218 0.31151 4.7846 0.050816 0.30213 0.1091 5.8031 0 6.0193-0.14879 0.29487-0.16871 1.4019-0.31151 1.5434-0.036713 0.03638-0.13254-0.04601-0.15576 0-0.11609 0.23008 0.06296 0.52215 0 0.77171-0.017808 0.07058-0.14136 0.08299-0.15576 0.15434-0.061093 0.30269 0.075552 0.62658 0 0.92606-0.26971 1.069-0.15576 2.2672-0.15576 3.3955 0 0.7234-0.14427 1.6003 0 2.3151 0.24969 1.2371 0.44213 2.4494 0.62302 3.7042 0.075101 0.52093 0.36598 0.73289 0.46727 1.2347 0.13406 0.6642 0.27446 2.528 0.15576 3.7042-0.32654 3.2358-1.2601 6.3269-1.5576 9.5692-0.15558 1.6959 0.062539 3.9749 0.042155 5.1188 0.25412 1.3426 0.17353 1.836 0.32794 2.907 0.14425 1.0006 0.16425 2.186 0.46727 3.0868 0.11214 0.33336 0 0.87009 0 1.2347 0 1.0284-0.15336 1.9922-0.31151 2.9325-0.14888 0.88514-0.64866 1.7212-0.77878 2.6238-0.02937 0.20373 0.050368 0.41772 0 0.61737-0.012592 0.0499-0.11904-0.0363-0.15576 0-0.1501 0.14874 0 1.7964 0 2.1608 0 0.29383-0.058156 0.63792 0 0.92605 0.27302 1.3527 0.50584 2.2755 0.93454 3.5499 0.084645 0.25162 0.036385 0.68947 0.15576 0.92605 0.24037 0.47637 0.52878 1.2918 0.62302 1.8521 0.14693 0.87357 0 1.886 0 2.7782 0 0.38094 0.12222 1.0257 0 1.3891-0.023219 0.0691-0.13254 0.0853-0.15576 0.15435-0.085118 0.25303 0.11986 0.6885 0 0.92605-0.023219 0.046-0.11904-0.0363-0.15576 0-0.17319 0.17162-0.025588 1.4398-0.15576 1.6978-0.44353 0.879-0.31151 3.2036-0.31151 4.3216 0 0.41983-0.10219 0.98405 0 1.3891 0.22611 0.89624 0.15616 1.8545 0.31151 2.7782 0.19857 1.1806 0.33386 2.4037 0.62302 3.5499 0.098967 0.39227 0 0.97632 0 1.3891 0 1.7655-0.15576 3.3542-0.15576 5.0933 0 2.2166 0.24493 4.212 0.77878 6.328 0.083081 0.3293 0.048455 0.76142 0.15576 1.0804 0.18817 0.55938 0.99396 4.0495 0.62302 4.7846-0.18592 0.36846 0.021617 0.88321-0.15576 1.2347-0.11468 0.22726-0.20666 0.20478-0.31151 0.30869-0.073424 0.0728 0.046437 0.21665 0 0.30868-0.12317 0.2441-0.30688 0.37897-0.46727 0.61737-0.091072 0.13537-0.039663 0.34798-0.15576 0.46302-0.036713 0.0364-0.13254-0.046-0.15576 0-0.046438 0.092 0.025186 0.20886 0 0.30868-0.072562 0.28762-0.38454 0.52579-0.46727 0.77171-0.041821 0.12433 0.041821 0.33871 0 0.46303-0.14139 0.42032-0.33927 0.85422-0.46727 1.2347-0.046726 0.1389 0.046726 0.32412 0 0.46302-0.2066 0.61419-0.26118 1.2395-0.46727 1.8521-0.25355 0.75374 0.12904 2.9675 0.15576 3.5499 0.02829 0.61673 0 1.2347 0.20419 2.1118 0.20419 0.46543 0.17005 0.67403 0.20419 0.87701 0.066839 0.39737 0.2287 0.82442 0.31151 1.2347 0.069888 0.34628-0.069888 0.73411 0 1.0804 0.022763 0.11281 0.14294 0.19435 0.15576 0.30868 0.11793 1.0517-0.018354 2.0517 0.15576 3.0868 0.25486 1.5153-0.013986 4.0822-0.31151 5.5563-0.15951 0.79031-0.72751 2.6219-0.46727 3.3955 0.27875 0.82865 0.16626 1.6058 0.31151 2.4695 0.09513 0.56558 0.21929 1.1495 0.31151 1.6978 0.10093 0.60009-0.076196 1.2481 0 1.8521 0.19309 1.5307 0.37808 4.9402 0.15576 6.4824-0.15936 1.1054-0.2012 2.1866-0.46727 3.2412-0.037778 0.14973 0.049255 0.31661 0 0.46303-0.14119 0.41972-0.57778 2.0315-0.46727 2.4695 0.51766 2.0518 1.1024 4.097 1.4018 6.1737 0.058742 0.40745-0.051514 0.82634 0 1.2347 0.026552 0.21049 0.10384 0.41158 0.15576 0.61737 0.051924 0.30868 0.12088 0.61503 0.15576 0.92605 0.17811 1.5885 0.048025 3.218 0.31151 4.7846 0.050814 0.30212 0.1091 5.8031 0 6.0193-0.14879 0.29487-0.16871 1.4019-0.31151 1.5434-0.036709 0.0363-0.13254-0.046-0.15576 0-0.11609 0.23008 0.06296 0.52216 0 0.77171-0.017805 0.0706-0.14136 0.083-0.15576 0.15434-0.061091 0.30269 0.075556 0.62658 0 0.92605-0.26971 1.069-0.15576 2.2672-0.15576 3.3955 0 0.72339-0.14427 1.6003 0 2.3151 0.2497 1.2371 0.44213 2.4494 0.62302 3.7042 0.075096 0.52093 0.36598 0.73289 0.46727 1.2347 0.13406 0.66419 0.27446 2.528 0.15638 3.8478 0.42769 1.8524 0.31998 3.6444 0.75244 5.3585 0.62414 2.4739 1.499 4.9437 2.0048 7.4499 0.13553 0.67152 0.042186 3.0636 0.25061 3.4766 0.037358 0.074 0.23034-0.0803 0.25061 0 0.33208 1.3163 0.035115 4.7926-0.25061 6.2082-0.22641 1.1218-0.48881 3.961-1.253 4.7183-0.49485 0.49036-0.62085 1.1712-1.0024 1.7383-0.35684 0.5304-1.3997 1.7868-2.0048 1.9866-0.37822 0.12492-1.0901 0-1.5036 0-0.19623 0-1.128 0.12392-1.253 0-0.11814-0.11705 0.11814-0.3796 0-0.49665-0.059068-0.0586-0.19154 0.0585-0.2506 0-0.11585-0.1148 0.075654-0.59507 0-0.74499-0.86711-1.7185-0.50121-4.2241-0.50121-6.2082 0-0.58354 0.070168-7.877 0-7.9466-0.33414-0.33108-0.25061 0.41389-0.25061-0.24831" fill="none" stroke-width=".99514"/>
<path d="m0.1651 264.05c0-0.47946-0.16815 0.24834 0.25061 0.24834 0.52087 0 0.2678-0.017 0.50121-0.24834 0.25061-0.24831 1.253 0.24834 1.5036 0 0.059069-0.0586-0.059068-0.18976 0-0.24831 0.083535-0.0828 0.66828-0.16553 0.75182-0.24834 0.059068-0.0586-0.059068-0.1898 0-0.24834 0.28505-0.28243 1.0343-0.77655 1.253-0.99331 0.3152-0.31234-0.40265-4.1769-0.50121-4.4699-0.10024-0.29798 0.10024-0.69532 0-0.9933-0.40813-1.2133-0.41052-4.8767-1.253-5.7116-0.5012-0.49664-2.0024 0.49416-2.5061 0z" fill="#20262f" stroke-width=".2633px"/>
</g>
</svg>
