
<svg class="book" viewBox="0 0 225 283" version="1.1" xmlns="http://www.w3.org/2000/svg" xmlns:xlink="http://www.w3.org/1999/xlink" xml:space="preserve" xmlns:serif="http://www.serif.com/" style="fill-rule:evenodd;clip-rule:evenodd;stroke-linecap:round;stroke-linejoin:round;stroke-miterlimit:1.5;">
<path d="M102.881,277.72c-1.965,5.269 20.811,5.522 18.246,-0l102.698,-41.479l-0.368,-197.852l-1.513,-2.627l-6.792,2.736l-1.429,197.653l-92.681,38.132" style="fill:#12022d;stroke:#ff00a6;stroke-width:1px;"/>
<path d="M209.83,40.079l4.297,-1.862" style="fill:none;stroke:#000;stroke-width:1px;"/>
<path d="M121.444,277.63c1.965,5.269 -20.811,5.522 -18.246,-0l-102.698,-41.479l0.368,-197.852l1.513,-2.627l6.792,2.736l1.429,197.653l92.68,38.132" style="fill:#12022d;stroke:#ff00a6;stroke-width:1px;"/>
<path d="M14.495,39.989l-4.297,-1.862" style="fill:none;stroke:#000;stroke-width:1px;"/>
<path d="M9.358,38.56l102.802,41.05l103.394,-41.359l-1.869,197.238l-92.557,38.992l-8.545,1.663l-8.878,-1.945l-92.441,-38.527l-1.906,-197.112Z" style="fill:#12022d;stroke:#12022d;stroke-width:1px;"/>
<g>
<path d="M211.719,222.383c0,0 -10.88,20.072 -30.552,20.318c-36.769,0.458 -50.518,24.653 -60.706,29.571c-0.126,0.061 -0.422,0.072 -0.423,-0.059c-0.121,-32.102 -0.286,-160.4 -0.304,-192.549c0,-0.129 0.073,-0.283 0.198,-0.343c10.185,-4.944 28.415,-30.85 60.914,-29.321c19.648,0.924 27.43,-13.491 30.552,-20.318" style="fill:#adadff;stroke:#f8f8f8;stroke-width:1px;"/>
<path d="M211.719,222.383l-0.321,-192.701" style="fill:none;stroke:#f8f8f8;stroke-width:1px;"/>
<path d="M203.891,209.762c0,-0 -10.309,21.565 -28.948,24.509c-34.84,5.504 -47.867,31.585 -57.52,37.901c-0.12,0.079 -0.4,0.13 -0.401,-0.001c-0.114,-32.085 -0.271,-160.361 -0.288,-192.507c0,-0.129 0.069,-0.293 0.187,-0.37c9.651,-6.342 26.925,-34.749 57.717,-37.68c18.617,-1.771 25.991,-17.253 28.949,-24.509" style="fill:#adadff;stroke:#f8f8f8;stroke-width:1px;"/>
<path d="M203.891,209.762l-0.304,-192.657" style="fill:none;stroke:#f8f8f8;stroke-width:1px;"/>
<path d="M196.898,199.489c0,-0 -9.718,22.78 -27.29,27.921c-32.843,9.61 -45.124,37.227 -54.225,44.681c-0.112,0.093 -0.377,0.177 -0.377,0.046c-0.108,-32.071 -0.256,-160.329 -0.272,-192.473c0,-0.129 0.065,-0.301 0.177,-0.393c9.097,-7.479 25.381,-37.922 54.41,-44.481c17.55,-3.966 24.501,-20.318 27.29,-27.922" style="fill:#adadff;stroke:#f8f8f8;stroke-width:1px;"/>
<path d="M196.898,199.489l-0.287,-192.621" style="fill:none;stroke:#f8f8f8;stroke-width:1px;"/>
<path d="M188.366,193.191c0,-0 -9.181,23.457 -25.781,29.823c-31.029,11.898 -42.631,40.37 -51.229,48.458c-0.106,0.1 -0.356,0.203 -0.356,0.072c-0.102,-32.064 -0.242,-160.311 -0.257,-192.454c0,-0.129 0.062,-0.306 0.167,-0.405c8.595,-8.113 23.979,-39.69 51.403,-48.272c16.581,-5.189 23.148,-22.025 25.782,-29.823" style="fill:#f8f8f8;stroke:#f8f8f8;stroke-width:1px;"/>
<path d="M188.357,193.765l-0.271,-192.601" style="fill:none;stroke:#f8f8f8;stroke-width:1px;"/>
</g>
<g>
<path d="M12.606,222.293c-0,0 10.88,20.073 30.552,20.318c36.769,0.458 50.518,24.653 60.706,29.571c0.126,0.061 0.422,0.072 0.423,-0.059c0.121,-32.102 0.286,-160.4 0.304,-192.549c-0,-0.129 -0.073,-0.283 -0.198,-0.343c-10.185,-4.944 -28.415,-30.85 -60.914,-29.321c-19.648,0.924 -27.43,-13.49 -30.552,-20.317" style="fill:#adadff;stroke:#f8f8f8;stroke-width:1px;"/>
<path d="M12.606,222.293l0.321,-192.7" style="fill:none;stroke:#f8f8f8;stroke-width:1px;"/>
<path d="M20.434,209.672c-0,-0 10.309,21.565 28.948,24.509c34.84,5.504 47.867,31.585 57.52,37.902c0.12,0.078 0.4,0.129 0.401,-0.002c0.114,-32.085 0.271,-160.361 0.288,-192.507c-0,-0.129 -0.069,-0.293 -0.187,-0.37c-9.651,-6.342 -26.925,-34.749 -57.717,-37.679c-18.617,-1.772 -25.991,-17.254 -28.949,-24.51" style="fill:#adadff;stroke:#f8f8f8;stroke-width:1px;"/>
<path d="M20.434,209.672l0.304,-192.657" style="fill:none;stroke:#f8f8f8;stroke-width:1px;"/>
<path d="M27.427,199.399c-0,0 9.718,22.78 27.29,27.922c32.843,9.61 45.124,37.226 54.225,44.68c0.112,0.093 0.377,0.177 0.377,0.046c0.108,-32.071 0.256,-160.329 0.272,-192.473c-0,-0.129 -0.066,-0.301 -0.177,-0.392c-9.097,-7.479 -25.381,-37.923 -54.41,-44.482c-17.55,-3.966 -24.501,-20.318 -27.29,-27.922" style="fill:#adadff;stroke:#f8f8f8;stroke-width:1px;"/>
<path d="M27.427,199.399l0.287,-192.621" style="fill:none;stroke:#f8f8f8;stroke-width:1px;"/>
<path d="M35.959,193.101c-0,-0 9.181,23.457 25.781,29.823c31.029,11.898 42.631,40.37 51.228,48.458c0.107,0.101 0.357,0.203 0.357,0.072c0.102,-32.063 0.242,-160.31 0.257,-192.454c-0,-0.129 -0.062,-0.305 -0.167,-0.404c-8.595,-8.113 -23.979,-39.691 -51.403,-48.273c-16.581,-5.189 -23.148,-22.024 -25.782,-29.823" style="fill:#f8f8f8;stroke:#f8f8f8;stroke-width:1px;"/>
<path d="M35.968,193.675l0.271,-192.601" style="fill:none;stroke:#f8f8f8;stroke-width:1px;"/>
</g>
<path d="M111.741,271.04c0.112,0.078 0.338,0.233 0.338,0.102c0.097,-32.055 0.23,-160.29 0.244,-192.432c0,-0.13 -0.105,-0.323 -0.158,-0.419" style="fill:none;stroke:#adadff;stroke-width:1px;"/>
<path d="M122.077,82.378c-0,-4.697 5.187,-10.403 9.119,-13.535c3.173,-2.527 5.691,-5.886 8.815,-8.375c4.27,-3.401 9.828,-6.014 14.792,-8.111c3.962,-1.674 9.616,-2.566 12.689,-5.662c0.646,-0.65 3.362,-1.859 3.362,-2.949" style="fill:none;stroke:#adadff;stroke-width:1px;"/>
<path d="M122.077,89.124c-0,-4.698 5.187,-10.403 9.119,-13.535c3.173,-2.527 5.691,-5.887 8.815,-8.375c4.27,-3.402 9.828,-6.014 14.792,-8.111c3.962,-1.674 9.616,-2.567 12.689,-5.662c0.646,-0.651 3.362,-1.859 3.362,-2.95" style="fill:none;stroke:#adadff;stroke-width:1px;"/>
<path d="M122.279,95.471c0,-4.697 5.188,-10.402 9.12,-13.534c3.172,-2.528 5.691,-5.887 8.814,-8.375" style="fill:none;stroke:#adadff;stroke-width:1px;"/>
<path d="M124.122,201.791c0,-4.697 5.188,-10.402 9.12,-13.535c3.172,-2.527 5.691,-5.886 8.814,-8.375c4.271,-3.401 9.829,-6.013 14.793,-8.111c3.962,-1.674 9.616,-2.566 12.688,-5.662c0.646,-0.65 3.363,-1.859 3.363,-2.949" style="fill:none;stroke:#adadff;stroke-width:1px;"/>
<path d="M124.122,208.537c0,-4.698 5.188,-10.403 9.12,-13.535c3.172,-2.527 5.691,-5.887 8.814,-8.375c4.271,-3.402 9.829,-6.014 14.793,-8.111c3.962,-1.674 9.616,-2.566 12.688,-5.662c0.646,-0.651 3.363,-1.859 3.363,-2.95" style="fill:none;stroke:#adadff;stroke-width:1px;"/>
<path d="M124.325,214.884c-0,-4.697 5.187,-10.402 9.119,-13.534c3.173,-2.528 5.691,-5.887 8.815,-8.375" style="fill:none;stroke:#adadff;stroke-width:1px;"/>
<path d="M122.943,111.186c-0,-2.807 4.627,-7.333 6.726,-9.448c4.529,-4.562 8.86,-11.566 15.461,-13.675c4.941,-1.578 10.179,-2.866 15.038,-4.812c4.412,-1.766 8.22,-4.059 11.568,-7.432c0.638,-0.642 3.625,-2.13 3.625,-3.264" style="fill:none;stroke:#adadff;stroke-width:1px;"/>
<path d="M122.943,116.351c-0,-2.807 4.627,-7.333 6.726,-9.448c4.529,-4.562 8.86,-11.566 15.461,-13.675c4.941,-1.578 10.179,-2.866 15.038,-4.812c4.412,-1.766 8.22,-4.059 11.568,-7.432c0.638,-0.642 3.625,-2.13 3.625,-3.264" style="fill:none;stroke:#adadff;stroke-width:1px;"/>
<path d="M123.137,123.418c-0,-2.808 4.627,-7.333 6.727,-9.449c4.528,-4.561 8.86,-11.566 15.46,-13.674c4.942,-1.578 10.179,-2.866 15.039,-4.812" style="fill:none;stroke:#adadff;stroke-width:1px;"/>
<path d="M124.882,153.945c0,-2.67 5.881,-6.634 7.859,-8.619c9.092,-9.129 18.02,-14.91 30.045,-19.726c4.426,-1.772 14.489,-3.625 14.489,-9.868" style="fill:none;stroke:#adadff;stroke-width:1px;"/>
<path d="M124.391,148.973c-0,-2.67 5.881,-6.633 7.858,-8.619c9.092,-9.129 18.02,-14.91 30.045,-19.725c4.426,-1.773 14.489,-3.626 14.489,-9.869" style="fill:none;stroke:#adadff;stroke-width:1px;"/>
<path d="M124.292,143.726c0,-2.67 5.881,-6.633 7.859,-8.619c9.092,-9.129 18.02,-14.91 30.045,-19.725c4.426,-1.773 14.489,-3.626 14.489,-9.869" style="fill:none;stroke:#adadff;stroke-width:1px;"/>
<path d="M124.882,182.945c0,-2.67 5.881,-6.634 7.859,-8.619c9.092,-9.129 18.02,-14.91 30.045,-19.726c4.426,-1.772 14.489,-3.625 14.489,-9.868" style="fill:none;stroke:#adadff;stroke-width:1px;"/>
<path d="M124.391,177.973c-0,-2.67 5.881,-6.633 7.858,-8.619c9.092,-9.129 18.02,-14.91 30.045,-19.725c4.426,-1.773 14.489,-3.626 14.489,-9.869" style="fill:none;stroke:#adadff;stroke-width:1px;"/>
<path d="M124.292,172.726c0,-2.67 5.881,-6.633 7.859,-8.619c9.092,-9.129 18.02,-14.91 30.045,-19.725c4.426,-1.773 14.489,-3.626 14.489,-9.869" style="fill:none;stroke:#adadff;stroke-width:1px;"/>
</svg>