<svg viewBox="0 0 33 27" version="1.1" xmlns="http://www.w3.org/2000/svg" xmlns:xlink="http://www.w3.org/1999/xlink" xml:space="preserve" xmlns:serif="http://www.serif.com/" style="fill-rule:evenodd;clip-rule:evenodd;stroke-linejoin:round;stroke-miterlimit:2;">
<g>
<path d="M20.94,7.313l1.006,0l2.869,-2.868l0.141,-1.218c-2.355,-2.079 -5.391,-3.227 -8.532,-3.227c-5.803,0 -10.924,3.917 -12.444,9.517c0.32,-0.131 0.674,-0.152 1.007,-0.06l5.737,-0.946c-0,-0 0.292,-0.483 0.443,-0.453c2.537,-2.787 6.863,-3.116 9.793,-0.745l-0.02,0Z" style="fill:#ea4335;fill-rule:nonzero;"/>
<path d="M28.901,9.517c-0.659,-2.427 -2.013,-4.611 -3.895,-6.28l-4.026,4.026c1.699,1.388 2.669,3.483 2.627,5.677l0,0.714c1.966,0 3.583,1.618 3.583,3.583c0,1.966 -1.617,3.583 -3.583,3.583l-7.166,0l-0.715,0.725l0,4.298l0.715,0.715l7.166,-0c0.024,-0 0.049,-0 0.073,-0c5.113,-0 9.32,-4.207 9.32,-9.32c0,-3.092 -1.538,-5.989 -4.099,-7.721Z" style="fill:#4285f4;fill-rule:nonzero;"/>
<path d="M9.265,26.517l7.166,0l-0,-5.737l-7.166,0c-0.511,0 -1.016,-0.11 -1.48,-0.322l-1.007,0.312l-2.888,2.869l-0.252,1.006c1.62,1.223 3.597,1.881 5.627,1.872Z" style="fill:#34a853;fill-rule:nonzero;"/>
<path d="M9.265,7.907c-5.092,0.03 -9.265,4.228 -9.265,9.32c0,2.892 1.346,5.625 3.638,7.388l4.157,-4.157c-1.281,-0.579 -2.108,-1.86 -2.108,-3.265c0,-1.966 1.618,-3.583 3.583,-3.583c1.406,-0 2.687,0.827 3.266,2.107l4.157,-4.156c-1.768,-2.311 -4.52,-3.664 -7.428,-3.654Z" style="fill:#fbbc05;fill-rule:nonzero;"/>
</g>
</svg>