
<svg class="sparkle" viewBox="0 0 212 244" version="1.1" xmlns="http://www.w3.org/2000/svg" xmlns:xlink="http://www.w3.org/1999/xlink" xml:space="preserve" xmlns:serif="http://www.serif.com/" style="fill-rule:evenodd;clip-rule:evenodd;stroke-linejoin:round;stroke-miterlimit:2;">
<path d="M0.008,115.388c-1.068,0.006 104.724,7 108.731,-115.388c-0,0 -16.168,114.418 102.915,116.512c0,-0 -102.077,-16.351 -100.72,126.778c-0,-0 -9.069,-128.475 -110.926,-127.902Z" style="fill:#ffc800;"/>
<path d="M108.015,11.683c0.09,-7.202 0.724,-11.683 0.724,-11.683c-0.133,4.039 -0.376,7.937 -0.724,11.683c-0.363,28.034 7.455,97.291 92.559,104.283c-26.392,0.538 -90.719,13.508 -89.64,127.324c-0,-0 -8.808,-124.776 -106.557,-127.844c19.134,-0.358 94.831,-8.047 103.638,-103.763Zm-1.959,51.387c4.84,12.393 12.193,24.776 23.269,35.319c7.223,6.876 16.021,13.034 26.763,17.891c-5.97,3.186 -11.938,7.238 -17.647,12.378c-12.666,11.405 -24.298,28.334 -31.392,53.592c-1.064,-2.587 -2.202,-5.188 -3.419,-7.789c-10.594,-22.635 -27.03,-45.102 -52.207,-58.274c10.296,-4.458 20.926,-10.827 30.655,-19.908c9.07,-8.467 17.437,-19.298 23.978,-33.209Zm94.518,52.896c3.552,0.294 7.246,0.478 11.08,0.546c0,-0 -4.281,-0.686 -11.08,-0.546Zm-196.197,-0.52c-1.435,-0.048 -2.892,-0.066 -4.369,-0.058c-0.136,0.001 1.465,0.115 4.369,0.058Z" style="fill:#ffc800;"/>
</svg>